<mxfile host="app.diagrams.net" modified="2023-06-03T11:02:07.860Z" agent="Mozilla/5.0 (Macintosh; Intel Mac OS X 10_15_7) AppleWebKit/537.36 (KHTML, like Gecko) Chrome/113.0.0.0 Safari/537.36" etag="4g1rCCZ-x43jDwo0YNfI" version="21.2.1" type="github">
  <diagram name="第 1 页" id="ca6iJmMMQ2hUINT5DayL">
    <mxGraphModel dx="1242" dy="738" grid="1" gridSize="10" guides="1" tooltips="1" connect="1" arrows="1" fold="1" page="1" pageScale="1" pageWidth="827" pageHeight="1169" math="0" shadow="0">
      <root>
        <mxCell id="0" />
        <mxCell id="1" parent="0" />
        <mxCell id="-ls0FMZY_MGFAoQnd9G6-4" value="" style="shape=image;verticalLabelPosition=bottom;labelBackgroundColor=default;verticalAlign=top;aspect=fixed;imageAspect=0;image=data:image/png,iVBORw0KGgoAAAANSUhEUgAAAGsAAABqCAYAAAC746+pAAAAAXNSR0IArs4c6QAAAARnQU1BAACxjwv8YQUAAAAJcEhZcwAAFxEAABcRAcom8z8AAGhqSURBVHhe7b11nF3l2fU/7i5xgwAtFdrnqVNK0eKUUlqgUKpA8RZvgeIkaAlOSCBCQkLc3WUynnF3tzPuM2f9vtc+M8lE+nyeVz6/9/3jPXBl77Pt7H2ve61rXffe54zXUGO9/ldjsLFOA42V6m+qOCUGWT7c8O+i4tRoJOpriAai/r8dgw316mv6PxvDnMPpzm3IgnWna7v/kfAaqK/V/2rYybhr66X/bdFANJ4aNadZNhJui7r/MzE8Mj3dedk5D9fVa6CBDn2atvsfCZhFY/9PxGDD6LTGmR+sa9JQLVHXfEIMNrRwosejf2w0Np8aDZ7pwOmiydY1njYGGpr+i7D1p4vTbTsap9ve4tRtB0emdh59I3HiuRnza5z2Gm6qc9prbFv+d+N/CSzPh9ZpuIUTctH4zU2caJN6uajR6GlqUg/LR6OLkx+N7uZmoumU6GmpU4+r5rTR1VKlruZTo7e5GkBraJzqU6Pp9DHQVPNfhK0/XZxuWz6XsHPr5Fw6R6ZdLdXqbqtTr62vrVJ/Hfsj8adrz/9OeA1Cz//paCSvtLRI7W1SG9HZIfV0S91dRKcnupjvZOoE8/aecNvUtj0legiX3D1Ia0/DidF90vuRGO5FbrqIDqITCT05Ov5NtCO5/xvD3VV3LNRPu/Q1s7xa7rYGDbW6ALVB/fWnacf/ZpzWYNgKB02YM2zzzgegu+SmwSZYRDJVGyfSDUAtLC8rUm9igipXrVTC23O085VXtHPWK9o1a5Z2vfyKdr/48ki8oj0vzdLe0XhlthP7xkwt9r/6IvHssTgwJg6+9rwOvv4c0+d0gOloJMx+TkmvELMsnj0Wia/Y9NTlFskW7He6SGH700WyxWm2t0h643knEl9/XslvvqCSz95Tz5aVGsxMJkVUSi46UxupwpQIxRlAXUaBMIUasqkZkXpbfioup4JlOyMd7vpqEiRBcnTX0HvrXOpv7VaXq1VDANVfkqWaNYt05Mn7tPLSH2jpxBgtigzQ3CBvfeLnpU/9vbQg0EsLA7y0iFjC/FLiC5Z/yfuVzK8M8tLqYC+tC/HSWuY3EJt5vymUabiXthI7Ir20k+kuYjexl3X7w7x0IMJLB8fEISKRbZOjvZQS683U51gkRdt7b5b7KDXORylxNu+ttFivY5HO+3SWWxwlcmK8lXuayCYy2fZ0kcF+Frb/UY6ZM95fxVOClf3dc5R9xy/V8K8X1bVzvYYqi9WHInU3tTqA9dchjbS7GwesGhhZ1YFhIt8bgGOwOa0MWkI0hAcBaqiOA3BQd3O7BviAXlhUtXKFtt9+uxbPOFOf+vhqsRdg+HhpuTV+qI/WhPhofbCvNob6aVOwtzYDxnYaeUeot3bwfk+Ir/axzb6RRreGTgCIRCIlnIYcafTUKC6exs6M9FEWkUPksW0B08JoXxVF+zlh8yWxviqL9yNs6qtSgHECcGx5+Th/VU4IUgUN6IkAVY3zU/WYqGG5RS3RGOevJov4kenIfAPTWo51ctSd9L5hQqDqOE414FZF+asgBNCmTVXWxZeo/Km/q3fPVkAp0RB5e8DlIrd7cvwgpkw1Lg3jJE/G5bQGw5xNX6NLXU12EHZsbtFgdbU6k/frwD/+qnemz9BnXkFa7+WrXd7+2hHgDzgABAgbmG4K9tO2kADtDAvSzhA/7Q7x1r5QX+0HvAOAeDjYX0dCCYBJCvdRWoSf0sJ8dTTcT1nh/gDjp4woP3p3gPJjAlUQFaBCohjmlrBtGevLo2nw6IBjUR3riUqAq4j0daae8HPC1tXE0YDjgo9FQ3wgAASokWgaF6Dm8UHHotViXJBchM27LOz96PR0MbrdmGiZEKwePlfhgRoKCVFjSJjS4uOUdvn56vrsbfXnZEMMzJarSa3NDZilRqcUGsaqD56Ey2nAshzVrK56lzpdndCVvFRZrva927Xq11fr9TBvfQSTNvsFaltAgFaG++pzer+BtSXQV1uDfLUTMPYEB+pAWIj2A9Z+pPEQQCYwn8S6FIBMCw1QKkxLg4lZYQADUHkAlR8WoDze50f4w5ZglcWEqDQyUOVRQaqKDFIl21QDWA29tRYAR6MewBoB1qIplkaKD3HCFR9KQ4aqnu3HLm8ZF6a2+GC1A9jY6IgPUgcN304jt423CFIbjHSm49iGdZ1s1wkAFu10gvZYz9T27RyJjjiWEzbfONEXpnmpL9JbCvNXZ1ig0+kyz52ismefkZKTyGnmIuvV1lKLL6nC4lcB4onYnFgUG93MWtZgNZtd6m1t1yDzLRvXaCF56XVk7lPy0ReB3loDS5bDhgWx/vqUk98AU7YF+QOWv3YGBQJWMECFah+gGWCHACgxNFDJIUFKQxLSw4IByk/pgJQZEaDciEAA8kRhFGyKDkTyAA3gSgGqIipYVdEE62sArzY6SPWxgBAb5kQD7xvYpykuWM2A0RzniRbCNT7MWW5gGXCtvG+bGAkgYQAToo7xBMvb2c8AdAFCbQwNzHW5JoU50TopXG1TIpx9utiui/0sOjju8QgBwJFgG5t2EZWT/VQww0t1E73VHuOjnihf9cL2Jq49ddI4NTxwr3Ron9wN1erFVfa0lIFFOZicWEifmLMcg1FDoqvEsVAT1dWp/tABzfvZRXoBNi3AHCzEACwipyyO8NEyeslaQNkaFKotoUHaQo/ZCiDbAWQngOwJBSyW74ctB8ODlBARrOTwYKVGhCo9MlRpyFo6kQE4OQCRFx2i/KgQ5fE+F5nLRwYLYoLIS4EqZX1ZTDCSBsOY1tIINUQ17KshatmuHjAaaLRGGqphNHjfQKO2TAx31ls0jQ9FngCAZW0TDbgwtRsYTJuNCTCiflKIaicTsKqGqGe+cXoEgIWrk32dAPR2gLYwwNv5nDY+c2zYMpcdE6mtI0/WTkABiNY4P/WQArogQFZcpEoe+6sGc49CkBr1dXqG7swRjsXnNNadFa569bVWqyfjiDbfcrNe8fLWO0jcvEh/fc4HLKVnfIH8rYIZW5C1XUHkJ9izi/d7AWsPOWsvyw+GBOowjEuEgcmwJzUccHifiX5nwZBsck8ukY+MWZgU5iNnReSrEjpDBWBVIjHlSFgl6ysBsBJzUUVOqrY8RNSwrJbtGmB4M8nfCYyAC8myaCEXuUj2HTR2K9MWkr/LltFwNt+C+XCxvTPFELSNR9ImIWNTYeBk8hcN22SGAwNSTwO3TWT9SNi2baw/FvZ+JFo5vif47Dikketo5XyaWNZon8uxWuN81Y5LrTZjNTNOrjeeliqy5cbiD7U0O1iMxeYkNwhItTUabG1Sb12hDr36lF6HOQu8/fReaIjeJ2csCfHXlzT8anLKWozDRkzCVgDcTc7aR146BBgHAOsQkYD0JbHM8pIjd0haJoDmwMh8gCuI8EXyfFVMY5ury8UdFgJUJe+rWVfDfB3zdTEGCGHAYBrqYmg4wLHe2kwOaSa/WEO00uCtNKpN22mU0eiYSO6wmBSgrkmBx6JjgoHjSwCCTcf5Ott0T6Fx2b7L2SdQ3YDWCTguHKett/3aCWfKvsdj5DMd4Dg2oFi0Mm9h8+2EC5AMqCZca+V4LzqXFx0Sq/+jr6hv5QLKJRsVsaE6GyU6jg9gHR86chaCppiv2rpWz33zbFjlpc8xE58GB2kebPmCWImsraPBNwDWFkzCdpzebrPiAHOA5QcB7DAGIhEGJQNOCmClwcQMAMsG6DxALyAPGTDFgFBCryshQefDpiJjEzmjBvBqWV5Hr6zj/WjUs53HvdFLDShMQMsED2vaaChPLweIibCDaLepAWONTHROBijAsLD50egCEIvR96PbG9Cj27po3LH72fq2CQB9LI5/vodVo0CNsswTLRzHRYcytpaP91YjNVkbCpNFmij43W+koiwNtzaMwcUTyKCNVY1GrYZbqKsqSrXt0b/p70jaR8QCf28tCvTTUoBageStZdkmANkCODuI3cQeANmP3B2EPYdxbEdgThJgpWASUmFfOmBlOmD5O2aiAJNgrCqCKcUwxaaFUT4qhjEGlgMUWl8HIM7UiUCnzmlEtpqRlyZ6qWO5rXEMGORrNDom4/SIDgBon0SvnkTPZ9oxmZ4/mR5O2HznFBqecACcejxGlzsxFWDYtnWCrzqmePYZ3c6O6QmOS6ewzzapbAW00XDBQJcz9UQzIBlgBpbVfA3Ugr1hPnIFBSn57LPkMnZ1QJwmk8Hj+Jwgg1YMCwnsTDygOT/4rp7z9tJ7gV6aizx9jsytBLA1OL1NGIitSNwOpM7yk7m9fYB0AJAOAVICICViKJIjQjAT5CqroQDJqaEID1hmHAAJdhloxjJjVymgVDF1zILVQiToepZZeMyDpw5yTcQ0IH8Wrok4OQxB56Tg4zHxeLTDjvaJNCjhsGuEaQZQz9SQ4zFlJMYum4ajYzsPyzgGDW/7Gwu7pwQfj6nBbOc5h/YRlrfToTy5DbbRqUbD8pVJYQsdz66pxmSY4rkfg5YRHqash/+EulnBbCP6x/E5JWepq12pi+bqiehIvQlYbwd4aQ4JcHGol9YG+GpDQKC20AN2BgdoN+Dtw3gcDGJquQp5PMQHHqIYPoLrS4oIg1WBDljpgJWJ88uGUfnY8OKoUADyVyGAFQBUEfVRCSdeBkBVSF89DrABG90IWCcE7GpiGxfOrWUCNZS5OSx1B2B5pA82jQHKmadxR6Mbto028DFwnLD3x6ObZcfCgDCJZP92yz00rsnj2GN1Md+FiRkFa2wYWK2Wu0aiBaCaYVY7KtJJhy6nA5RN8lKHdV5KmoNX/IBiOVHD7W1jsDnJDQ6DpIE1987bdSe56oOYaH06IVYf0HAfUV8tYdkqXwpiANoe4KO91FsJMC4h2Ft7kbB9NPpBZO8I7EkGpHSAOwrjssht+RiTorBQ2BSqHEDJJucUc3IlxiiiHNmrBJxqAKk1JvG+gakB1AwoTmCPm51chasbYVXrJHNtoQ5YJzBrTFhjj0an5RxrXFjjLBtpbJs3Fh1nlL33RN/0UPU6ActMVslPjsGwfHaMYbbO02GOMWsMWKNhYFm+akECHbAoYco5TskULzXShmXk+qSvTFbHllXOXQjDxYA6yQ0CFrWVm0S24fEH9PJ3vqE3zvu65v/HeVpz/g+16eKfaPt3v6WNU+O1HJassRELWLcHEPdTf+2l/jqA2UikSk8j0slTR5HPNFiZzjQvyFclwSEOozLiMRxU9OVR3hS4uD5cnrm+BgBqBDBzeGYePGHAjEgeZsKFrLTQAC2m/yYxNFYbjeXkDHNk5tBOijZyTBt5x6btRAeN3jkjVF1j4wwLCt6R6J0BSDOCTol+tjPwHJbZ8WGazRuzDCgDxJhjgBhQ1llGQTsZOItmrreGbWtwhM102saYcNqLXPzJ+1J/v9xgYgWxw6zjYNXJ3eqSKz9HZV8uUN2G5Spf/YVy576nvbOe17rnntDuxx5WzqOPK++hvyr91lt16IIfa8c5M7UxMkK7vWCYr58SAdEMRRqFc2qEZ0A2gRNJHGcj3X7KwPUUAmYFzq+a+dE6ycLDppATgDLZ84AFqxznR2OMRCNS0oTdtlrIkvhoj/dYcU+0Ei4MgBOYilYzCkxbJiJDZhLGANZ9Zri6HbBgkYEz3Vg1NgBrRoj6p4c7TDMGdvDZns+yz6cjAJgBNArGMbAsfxHOcstdI+tbDCxYZmA1UUO2jY/RftJP3uyXpOFBuZsbj4NlDtBjDWuQwDbVHE3WRzdeo4+uvES7//6oShcvVMvhA6pKOqTKw4dVuHWXMpcuV8H8hSqe866K33xLeU8+odybfqmDsHAduWoLbEuAdbmwrQRWlVL45cTDNGqZLGoVG3htsiEjbHsNZsKcXi2g2LTeGWC1it/j+Fom2GCoR/psWRMXNhoGWCvuq9V6tUnRNI9D6zb5gj2j0U0DdwOAJ2AVDd8O08ZGGy7PAx7bnglYZwQ77OoBoB6mNm/L7L0d3wmOY1Nzhx1m500+DcgzIh1XaDbdnKHZeae0II67Q4+lbzGDMQKWMaspJlL7SDc5rzwPWDCr2e4jViODznDTyOAtb9TdrpqURD1/xnT9jR1mTZqsj77zA+34450qfXuOGrZtVePRNLlystSZl6vmzDSVH96vgq3rVUdd1rlplSrfmq30667RoWnTdTAwRBkwrsonRJXhoSoBpBKz5jDIhofMntcCloUDEvmpgbxkYNlouAtzYPJndn3UshtAJn3t5Ig2QPIE80hRx4g1dxI+OcjCctEJ7IE5x4HzhIFnjHNh700qOx1AAj3sAlwHpBHARgFyOgQ5rpdjevIZx5rGsad6pp2cnwFmcuiMjIyA5YRJOQDZyEkzZsrAqo7zUgsq0xQXqb20fe6sFwFrALAaAMvznIuXDRYaxQww9XSpKjFBs6dP02w/b73l76s32HGOf4CWTJuqvddcpay/P6462NZx5JBzE01DPeof7lNrS51aK4rVk5WtgV0H1LXoS9U8/5YSLv+lNsdM0x6fQFWEIWUYkHqMhd2y8IxOUAADWr3j/Myak7PMSCB5DXG23jNaYfa8Y2rEMSaNgmXzrSY1LHfcHkA5BoH1ozbcA9Cp4QBoUwDrmQkjZuIqAcEks32SLw0fQI5C9iwMLEDsg6l908M8AShjo2eKJ7qnAN60cGfeKR0AaOyIismhZ6TlVLBaAGuPwywD67gMGk4nuEEDqzopQbNmTtcsH+qrIIphQPsSWVvL+1UcZKU/hfHkSdp89RVKePYp1e7Y5DBy9OUeGFKvq0NdNc0a7h7mw5DWtWuUcvttShgfryyO0UBec+Ewa2BPLWA0RwKGDbCSr+rGhcE05JDlo/mqbXK4M+rtOD9yggOOMQqAHGYxteLXY6UNIHo302NhjBobgOOwjOidQUOfGaH+mZHqJWf1jOQth0WA1QFoXUztfT8M62dd/wy2nxE+AhiGYxSsqQaUTS2f8Rkw3jEVpgajOWuEXQZUqw2XOTLor2rShIHVHBehveQsD7OOg+W4wRPA6u5UTWqiXj/7DL1Joy6GWUsBbHmIlzbg+HYGeGtXqK82B3lpOeAtxsZviI9SwiUXKv3Fp9R2ZDcOBvvPa5Dodkt96mVumOW9atpzQJn3PqyE6WcpndqsKNZbbRSIfTjGVrujGheoqpgY2BTm5ChnGGlSGCyKGAHMLLqndrIGsIKzkwbpdqx2BBIVQ86IBoRodU2POhY9Zx6P7jMi1GPB/BC5ReynGZFys8wBAHb1ngVwMwHsTAPa2OvrRA9g9RkDAbfnzBGGAvZo9AJerwOS1VxmNgwYK8QBjfNvs9stI662BfWwaKZzVnOdVhg3kcPrYkO1n3bNmfXCqWCNyqBTEHfDrJQjmj1zht4CrCWwaDGWeymWfBNs2EY9Zc9HbLeB23Bf7aWG2hMIiPSErQFB2oJ8Jtz8S9UuXaCBxioHsm71yKVO9RuC9mofUDuGJfeJ+5Q5faryg/1VToPnTvNRwWQftUeR5KORQ+cua4gjfwaUAxbRTg9upze3IncuaqY2clI70cwxGti20QJQ62mUOqIeYBvZbjRc5Jl2Y8/ZMQ4wAxxvEKAszOX1G9MArRugeojemcZE+wxzkHQujIhJpwMUxzlm+U8Ay1N72bQVU2WjK+1TIp3z97hagmnLeGrHceGqnghYgHoMLJTsZLAcN3iiwegArAS9OgLW5/5+WhLsq2WAszXEV1tDfbQeO741AoaF+QCUj5KjQpw7v3k+virw8dcRL39tj4nV7isvUtPyD6W2ageovqFh9UCwLthmrBtSlwb2b1PBbbcpZdw45dIhqsd7wRZYNs6H/GXM8gwlGaPaKHzbkJgWpKuRJF+HEahku7I4b9wmrjOWYL4EtpbaMnv2gnDmcVqlyEwJU9uunP2qse8N5KBWgOg6K0J9Z0eqn8YfBLBBa3hAMrBGAbNp53SY4rhGTIzlOYddI5LK1MyG5Uhzh+ZCzZnatbTCsPYpHmWwa/KUIHRGpv81WMcNhuMG7R9PYN0BqyrlsGafOd0xFov8YFWwH0Wwr7aE+mk7YG0GqB3USPsxColhAcoIC9bRsEClmj1nXUmIn7L8vbXHCmU0PO+mm9S7fq/U26M2QKJLqBPA+oku5t2tzer8YJ5KfnS+simQW6nH2m1UmgtopUdatANSO2C1MF9NLVXONsUOKJQBOK0aenAdjGk5K0qNZ4Q7wNTyvvUrMaqcSD6gcdvOjVYT0lZHI1YhUZWAVTbBV6Xj2XYKzgwgelg/fHYU7KLhHTA8rBoFzMMyjjvZXKMHMHOSDnDGNJt3XKjH3jtjinxOM7Xg6HXYuKYBZve1bDSmMT5UlSyzh3caMV51cSHajVLlODlr1LqPgOU4wZEYK4OenOWnpTT+ciRvM2DthmV7Ydj+EM8tkOSwIKWHhCgtIkR7J/rpAIVmWoyv8vnQsqgAFVJnZXv7K3nCWdRij6qvqtDgkdtJaOA3IPE/SwCvNJNi+88qiohUJ8c1bXckkB5p0wbcYxVFY0W0j+rQ9xYaxcJkrRNGtJJ/2mbGqu1MACIPVtloPPmoPMZHtZxb91fJZ+fGqeerbAOT2jEUrWeFA7INHnurKMpLVeMpSgGs5yvkOkDqxrqPssvCgOtjX5NAc4xm9zv4fI9ZMWPBdmZwHJPD9k7uMim0It4UwnMtFk0AZCM1jXEGVrCqbBTewIoN0U7aPmf2WIPhSVUngdXpgPXaWTP0L5PBAH8tAaxlgLUJsA4E+OoIkRjor8SgACWFBik53EbWQ5UWFaokesVhHFwSTqcAZ1Mf5qtyGjgDAPeH++vohReqddHnuE4zHbx6AQ60zEuCndz9zXJ99J4qzpqmForpVgcwmABj66jRrP6yO75WePaRY6yWsZrFZb2SOqyez7ZcYNHgjIBYgR1A/qNGA+DmSdRSNF6LjaCT9/q/Fqu+r8Wo7exwNQFGGXVWHlJcNhXQpvsDALXWTGOVByybmuEwm2+AGVhWl3XAqA4rpuk8xwaDHbDIv/ZZsKqR87FcZWbJrulEsIJU+V+CdWwE40Q3aGC9CbM+YIc1vj5aG0TYDUa7TY/ZOITJSIBd9iiZDdamRgbpKJFt8md3g/nArGjyF2BVR3MSRHlcjGqix6nA9psUo4J779BAZoHDKA26NTDQJ5RZzWQy49nA7o0qvOh7qgkIUB/Fcx09voIL6p0UT0+NAAwb4aCQJuyxs3qscCfurg2z0GR1GEC0Ued0TIdB2GwXEto6FZMyLVJNAFwG26oA0J4VbDJD8JVYdZ0br2YMRymGoJTllTFegEtjz4zi2JHqMic5M5pjmpkwi88yplagu2xA10yJBestOjmujWjYyIrJn0l4kzlAe84DY2HPiZgE1uOmKyaEqQwlqEGNqmLDtI22zz4JLMcNnsqsRL115hmayw6bfL21FZu+JcwbCQxwnvnbj80+CNMSiCTYkmaj6xEBOopLzGZdIY1X7IykB6iMWqo6khMKG6+W8InUEQHKwQys5eIqn3lF/TkFgNOHARnAMQ465sMDF+Q7mqjySy/hGBSMZwSpkItpnRjhFNG1ViwDXgMgVMKmUqtZkLVO8k0bktg0zdbBqKmBgAF4FNPdZ8Wrg6hHGgspsmthZg0srcUt2sMwJp3NgFllTJxMrQc7SyO91YDd7kBeu88Zr7YzYCHbdNMBuugINm2nALYB5Q7ycxeMHw17hqOdsGkb0cp2x0DCrjfEh6sxFhmOiyIHh6sc1bCntipjIk4L1mlksMMZbvrXzDP0CTtsDsAFYiq2Yib2kkcOkqvs0eVDAHUEiTsCU5JhVCoWPoPluVxcEcWs3aMqjsKSA1a5jVTgGLvCYAQOsoiknXT9j9X73hzl/+JaFc99EynsHWGZSaJbrSOA9ecl6egvL1IeyboFwOqQqTpAM81vp5ZqOyPKYUYtvbeSJN6CeWiHHY1IkwFm0wZkqA2AumjwBrZtIrfVw4AaGx76Gh2IGqsetjnraORyQKtFpvptHfsZYNUAaJ9l+bADgBwGOYB5gOmE0TYMZqMqBo4D1Jj5NoB0wHLkGSdLIWxyV0u7VJFCynGAlfb4Ah2/Jip8jAyOusFjMuhxGh432AZYCXobsOaxwxYMxrYQH20BnD2hgc6DMPas+SHnnpWfEgAyFXZl0COyuKg8WHPs9jx5qoIeXBoPM5CddrYr5jg5PzlP9R+9Ji16VxXfmqSt9LLKOe97nAavbpjW7R5ychhOX/3p+1R00XdVhQFoo9ZpJS80jSc30Rj19OhmJKcKQMqx6TZs4yLZt5JPDDQDz96bfDVRTNcjWY2AVIs8lduQ0lfj1EKBW0dnaGSfWo5dDSOrOV47Mtf/tQmAFKESypVyjE3HWRTbJn9j2GNAGXDOMBgxCpJNR6MNoFpgbxOdzOrApomwanw4wEWQKugQscGcf5Dqo4JVExOprbR91itYd/fYgVzntv5onTXCrNREzTlrBKwAP20lR22xIjgkUPuRwX2AdRgrnwBY9ohZuuWrmFBst49yo2CWAxbMImeVI1kmUdVW33DBh86ZqLIXn5Y7M0U9H7+q6nNjVBfoq+xJZ6ll4UKg6dWwG5iGhiyVOfWYvQbWr1DRN2bSe3F+yJDzNBO9vgEAmshNlfTqChJ0NVFrt0kAquOsSCe6kMYW5LKBPFc3kRw6zh9wg1SBfW8xEGn0RhrcYRbHaoQFdRzXjt0K67rPQT5hZQWdrxKVsLzYAzstRpnjgGbsGQOYM2458t4Gmg2sZgOK/NSIHDZgLBriwnGtUcqLD1YhHbCC/FzCsvVY98xXXgKssTI4Yt0dKRwxGDWpSXrnnDP1KWBtI09tDfHWZuTLwDqA5O0nf9lNxgSASo7wJ18FKTMKwKi9cmFUARJoUUzOskeeyzmRSqzxQfJZxkO3aqCinEKrU/UfvKVCwOyKRgqMoV+bpp7taxz5G3Dz75AHrT7eDw71qpXty8eNx2FFYRiwzshgI4m7nkattZ4LA6rjMSIUvWaDLXf1fDXasfd1yFgzBanlOHtws5rGLMOUmCQ2AnojIDVwrAYavIlc5DojGmDZjv3ame8/l5w7PVIFXHsTHcPcqA1ZdQCcucp2Kx9syrHbDGS7Ccm03QkAY7nLwKKz2ahFC1LYbKM0MKkIgJIjvZz7fzmBXjoa4KWFtH3yS88C1tCJOetkN1ibkqT3Act2sOcsttvjZjZaERzoPAJ9CFAOcdJHWJZidjwiUEejAp1vexTCrkoYV4HhKMZMlNo9KnvEKgRT8tNzNZSb4hgIuwNa9/AjKoep9RSXjdN9VA3zqq++RsP26DabuAcQQRx+O5i12PumCpXe9GsSMLaYhuyjwcz5lcCUekAw19aCmahGDstxcvZtkEYaqIbGrcOJ1eLEOmbGObVXDY1YYgOrgNVHLnLBDGtQY4cLiWxGPnsBw56aqqE+apgaq6bJsTBonCrpkPVIZSfFdycAd2JAeqbFqB0wm8irDdP91DDNH5YSk32Ra8oAzrGNzttI25SFUoeS47PpyLnjo5R55lSln3e2ci78D5Vfc5Gqf/crpd51u8rXrgCPLg032SNpHjI5YNm44ChYZjA+ImctBaw9SNQuZHAbPX9vUBA5KkBHqHkSkcVk2GXPA2YATAYMSaM3l3MyLYDaEAZQ9hWcCd5qobccGR+mii8WOUwxaRtuKlfjRZeogWNXn8nFz/BSN41QFD9BtdRZzstQNUVkh25nL7cat6xV3oypGkSONI5jU+zm0fDGMHtWovMMnJkxiSK0mo5SaQ5rMjIJ85qmR2EOYnFosIYitMxuXQDyEMVs51nm5ILVayUA9VLTWYA1lUafQD5G0nPHmzmZouEZZ5AXI5Rr99eQs4FJURqaECE35UQP7tSe72gDyCo6S0kcMdFbBdRtuVj0opnTVX7xj1Rz5y2qn/2EXMvfVefOpWrftV2te/eq5eABtScny11cqo6UNDUfzZC7xR70PK58zhcTDCzPQO4oWDP+LVgJBhasMrAsjsKuTMDKignABZKnotB2WFbNCbcgSUbrnD/eLnV0WXs7r85D25U3cYKaI+n508gd073Vb2N5UWFK/MXlcrs4F3thOix3dTIzYHxra1T1r29SU1ygA1YrYJXAigZqqG4bizuTRscwNCBDVdh7GxkoA7QqZM4Fq9phQOf0WNUhR2Uwqw7pajknQrUzKS8odhuw+rU4zuqJ/nJRBJdPDVA+BiYXxpUivb3kr9ap41UVHa+GiAgNTorVkI1S2JgmebkxIgqnN4mi/hwV/+R8ld9xqxpfeEqu1UvUnpmggaYSufsaaAYbeOtSZ2+96hsbVVtVp6ricrXUsK5nUP2tPeosrwSg0S8m2NSRwVGDYQO5uMHUBH0Ms74wsIL8AIvcBXX3BhtY/jDLvvQGUEQKoB2N9FcOMpiP0cjCTGRN8PSqhmhv1SJ/O8lFjUmJTttb/hnCjla//hwmJAgwY5AUG+D01YANySBVqdawG5EAXsMA1cOldeILuQRnWcfSRcrEZAzQ83thQaWTa8w+k+gBrAOm1BoQAFJDQi8F2GoriM8ex3rqpRlxgEnjUwIUU+9VYftrLLkjVTXkoDZqMmNMt+UtZLYZOWw72+ovOt9kPw1Pi5YmTlRHfAyWO0RJON5kjErBNT9S8aMPqemTj9S3f4+Gy4rBo8PRBBuvsVGaTpu3VMyFmWIMDbhH+6/n1dGpodISFa9brTKOofYWBxePCTw2kDsKlt3WP6y5Z83QCh9v58sFu2nwHVju/aEhni/AYdGTYU8quSgVC38ULc4jWRbDkkzyQ+YUb5XFemNBA7UPCSyY/YxzQsPImg3cDsCarGsuViV1WduEWPICDQlDupBMeyS5mM+ref4JWDgMPDY278ZwHCOlhsqKlHTRf5LovTQIWM43Gg1o9rUHYhoBoBFpbMBQ1ABKJaCVAEwtktc6JYqOgVWnU5TQsYrHYTKocbojrU6KpPimjpoYI8XEaWh8tAax14PjgjRMPusDVDMULTC6YbyP8nGKKZd8X3lPIWmbt6u/vIprNEg8NYhTdhBWgvSzaJgZCxsXNQBN5fsHOtVXmaaGXSuV+vQj2nvVldp57jf0eUiIjs56mR2os1pGR91Hnsg9XhR3AdYRfeyA5aV9QYAFs7YbWCHBgEXOwkQkjwCVSo4yc2Ff1Sk1sMaTQ2j0enJWTniE9l7+Ew3UFdLQ9CRoZSffm3JQ2V+ZohaYZ2Nj9iW11ok+WGYfClw/NQJw7e9v0VAHLojLckYR7coI2394oE+lj9wJQF4awJw0YAgqrd6ibqqlzivHVVWSU2qx9/VTYATsKsdgWElRRf6pQ6orKdzLkMqSKVj1uEgNRsPwKTGqOH+mmr8xQ/1R8dKEeLnjwyTqH8tJTRiJfOaPfH2K8v/yK7Ut/1jusizOy/TCA47ToRwny9ROtocAoEFWGkDOq6dLQ2kpavnkE45zt5J/8A3tHheuHf4+OhAUqD1hgVqOqmW8+LyDrMcNjgzkWuIaDU/OOuJhli9gUQR7wMKyhwaPyODJYAUoF2YVAFr2eEwGxqLZL1jpsTPU/OWXnCRNPoCY9WBD+a/6438pbzzV/wS2Gw+bALh1Iq5wJq5uJg7NmPXzq9XXVM2+g+ozSlp70DtNRmy28ePXyVX+5AwbNYhQGUCUI8/NFOBtGAerw6rJWRUwp9Kk0BnVJgCqlvkawKtGBXLYrmb6ROz1RGWdPUHdHz+rsiu/p7oo3CWS2QUbezAd1dRYWdPjVPfn29W+Z6fc1KMGTB+o9PBv93Cv+ilgNTyM20aymTI59nIP92ugNEe1n32s1DtuV+o3z8MRxivXJ8gZZEjG4eaEhysvNFK5kXHaaGC9/OIYsEz9TnNbv5aieD5F8TJ22I2B2EF9tA1TcRAbb99aTIoMVBL1lX0POIOLz4oh4vyUQi2VD1vqyF0ZfjTQnx6mFwEQ+jxA7+s1/rfUqvJX2G/AbkQum2FTN0VhbzzyNAOrO9NbLuSx8ufXq6/eMezOhVNu0BBup6NaD23euFBJ50aqhcKyBQdZee5Zyr3w+6q46EJMwxS1W2ewegmTUAXjymLIY1GR5NJQpWMiis+hHkKqC+MjVHXdlSr95TWqeOddDWYVK/uGq+k8nMeZdICp3spk/4yrLlDHmtWgMzLMAo8GAKnX4HIjVf00ag+dcqiHZd38N+BkWXdrk1xbd6n2vnuU/7XpOoz6ZJCr8yIxPtFhKo8OV1Z0qJJjw5USF4FZi1BWZLTzrIsHrON1lgPWiTJodVaiPsVgGFi7AGs7PXYbcTAIsDAZidRVSTAqNdLXA1YsNUOcrwrGIV8sz/XzUeIPv6+BnDyPNtC65uVM0vqP7FP2176uJgrB1mmARX3VOSFGffHWi30xAPYwDfHnP2m4s4/dAYtDkL74x8CixzLbu3ejMr4apcZzJ6nz/rs1uG+LVE1CL85S58pPlHbBN7HtwRrExndO8VM9IFUgNaXksKpYzAfnW2xF6JU/Vfty7POONRy0U11J6Wq96w9qo4O6ueZCclTBI7/XcFW+cykGlXMGxqIBuzDmRzqRdS3LT7ZNb1GuKufOUfG1lyk/JlpFQb4qpMQpJT9WTIjCidJxKAFKAKkgPExHAS0lNhKwwgEzypHB9BOYdUwGTzQYtcjgqWCNMitYiTDHYRbsGAuWyVAT2ySQnBtWLnYadYBrsvtVbudSu1T1xotKj4tW1zgrJum903yp9CNhVzTs8lXPZB+VBnmp7umn2N5wtv94jQHL3vfv3KpiHFjxt6aracHHTmOZeTHn6DivfZtU+q2vqxN57IW9dj+pcFqQiimUewP81OkXiBRNUNfe9UgabHD3cNxeDSYcUNVlF6iZc6geFyLXPx9He+0JEg8YPTDHRsIdm8rEYTwvk2b7/KHUAjXO+kDJP7pYqbGcH6DX0Sms1GjEPdYCSBUMKh8XiTRHqDiWzhAe6oCVGhOpzLBwZUZGaSVtf9QBa6zBOMENegZya1MSAGvGKWAdotg1ZiUYs0bAOgpY2UhgNppeHOGrpAB/ldz/ACj1qJmT7+ViBu3amB8uz1PGtRdTiwWqGzfWSS3TRq9vsS9VTyTJ29AOeSQDN9a47HP2sEY4ESxzhpa3O1etUMrEKFX/6noN5BY4YHWzYTfb2efaq+e111WKDe84wxfWUlrQEaooWt1h0SoPiFXZi4+wVe8xVgzjvPqWLFbelMnKxxnmvfo3Pog1HNPUz57U6ncDy+CAhugRnZwLRps9ycqZhWr8x2wV/ud/KC8mShWhYWqOjqJmi1AGslvA9TaxvD42CmYDVny4ijEvhTGhyo0IVSpSeATATAZTI8Kdsumo8/g0fhhsRn+k61hRfCxn/RsZPBQSqCOBAToYYj+RYKPtvg5Y9jh0AYXnbnvm4meXaLiyjMvwXJz1V+vt9mr+5EOlkLTr7eug5IE2Gq4bwJqogZpxbcMk87IoHNEFPyQZm+wM0xgj1ZUhNmTMMoviVsHrr2nH97+voaRkoy2tSYuSH83jm/Oyl7u4QNlX/BibHaAumFWFxbf6qiQqThmXXqfBikq2GlA3BY/z1GNjs2pvvU17sM3ZD/5FPT0NDhQObQxRYxLnZAZiCPBscV9XvSoXvKuMb38XgKJVaGXLVF/nqWJXHDIdG09uGocEx6maUqAyPlLlxixyZUlcmIoA6yj56yBpYS8mIwnADkWGOvcSkx3rPujgYmE4eXLWyILTgTVqMIxZiVjLw6F+WHjqLJh0NNpPOYB11Mb+zjpTrfu3OTJkcq7eYQDroFZHd1u6lXv77crFMreTvBu5oCYsdx8N2UARbMVoL7VRPlY+75nHaBUD2R6wGToGluUt41m/q0qHHvmrGlesssVqIPoHO7iuRthB1mAHk61uGrbxpWfUEBiiHorcPnJFfTi14nlfU9u+fUYYUk6rBt0Unsx3rtugfRPGK+/WGzVgKcFUocdjcPpxpEN2Avxv5+P0h6Iald73kI6gBCZ3rhgvtUcEyRURpnrcZFVUMKkhEFn3xeV5vpCRQXtmUppk0bFz/JgS+3m/CVO1gdgW6KutkOJDpDrljVc5B8BqotOAzWmtuydneWRwJ1Z9O65vU7iP9lFjpYT4I4O+2oVkHaY35EaEKDfMX7tYX/fWu1zBoFq5yh403U1vH6IL2sW179it9HO+qaaoMDVODlD5jFDVT41V6+Qw5y5w47RAdUQHqcAa8uAuB/BeRG9ouA/cgMR6MwwyVrUk7lfhltWAB3A0aAcf0MGntDrb0+X5v5H9LfoOb8eaz1AvjViP7CSee7aavljMGnIbx+s0ihislSXaedXPdOiSnwBCptMJnPLJHjkgMZHN+A+IjMUDw2o/nKiES65TkleYSr3tnl2I0uhoZWFTVRF9FpI7U1lnEGefqbyzz1DKd76pg5f+WIlXX6rkn1+l1BuvU/5tt6j47j8o5dE/KPkfdynrnw+o7Om/quHZx5TzwO9Utf5LEiFCOwKWxcgtktGxwa5jYH1pYGEotkHTDUjebpxeMuAdoijebd+virLfIwrVTj8/Zf7xDrld1p85BEmxE2bYBVt9qKF+HX34fmWFx6k9MkIVU7CtVP+tE3iPPLXCslZySh7yUP/E352i13LBkAkN+2rAbLDHBbqHhjTczPn2YwpY0N/LpzhYDqmzr9fjGml/kzUX+7jb61Twq5t0hGs5+r1vqGUdDQAKkMV5FM7UzWQtnV782be/Ktd6G+biWPxr53+619Bgvwo3rVXCM0+p5uWX1f7mm2qeP091K75U44Y1cu3YrI59O9SbuFsDaXs0mLZP7qwUKSdTw1np6juarLaE/aravknFa79U7fKFqpn/sSrnzFH58y8p594HtPZHFyjr47n0tp4RsDwj74DluVdiiczDLDMY08eAFeSAtSfMvtUYrAOAlAlly7DYh6Hxnkuv0FC5PX3LhVvOoBF7aABrDMOqJ/Gg9tC7atBtFw6rYgoFMBI4EBcu4QAV5+88AnDo+kvUX4Tdt+MYMlafcQS4NdJwdjQPMG5zE+Bo2HQ0VSmdHNZ9NMsB1DC2vNXp9BSp9ss1OnrnXerbt5cVFKcOU46DMdzdr9pDB9WSsIee3MI19Dn22459upcNfXWPHNv+tc+07Z3PHnl51g6rp9ulhrI81SWkqHHLAVUu20COW66qjxaq9OU3lPvIk0q/+y9Kvv13SvzFzTpw+bVa/72f6OWgCB2YZTKImXG+BG5kctygx2l43CDWPfWwPjtrlFlB5KvjYO3Hau6N9FdhiLejtztnTlXb7r3OhXdwAdazzar3m3xYz6Zhyx55UJm+Xs4jV82YilrAsq/nDFIH9cb7qzkcB3getRe1k0mmk+/o2qZo7VCg24pps8scvK2mWpm7Dqu3vYP3NHlthdIeekCrvvZV9dEpnEZyjIbnHPqRLLdRsMs0zZPLmtmqxxrbohumdo3CZovoCCy2QZMRPJyX267Nwj7BMTMsZGImijPx5DH2scFZK73sToGtH+5CbqtdaqbYLt2boLRlq3X4w3k68tYcZc6ercwXn1fiS08r/cWnlf/CM8p/7mmVzn5RiX+7VyWwzr4vN9Rk2HjwcZjlKYqtzupQHTK44OwZTmG2E6u+NTxIG+2ZdrtLHBek/eSrQ6E+2jA+SpXzyFNchDWC85CLnaTTVlbO9qst8ZBSvwKrYGHLxBDn0S67yWffnujAAaaPD1Pyf35L3WspStnDjmEXa9WlpSqyEEuRxIISte/cppT576to9yH197Sobt8a9T7+hLIjJij7m19Rz2EKY3shm8bKkVOxNnPmrQ6yPGY3J4ydAwBftG0n1QqiywYGpzHEeVkdZTuNvuztKGCDSNMAWZLazO6z9TrnyN7D5n2Zgw19FNhDHa1y2w9A2v2pIwlq2rZRzetWyrVqiVoWfaia92apfPYzqv/H31V7330qu/0OZd5wo/ZdcbkW/MfXlPbhO5wQR3fKqhFmORI4EiaDdalH9NkYsHbgajaSr+wXZPaaYwn10peRFHNvvoZcmWejzsAI9FlPR/4sH9hwi3uwSVX33aPMIG9VT/Rxbqe7sKf92NbWmABlUSwevvJSufbu9rQHDWIE8lTRg47UWOMNVtUo9y+Pq/zRvyl33iy6catqNi5XzQN3qnnm2WoMDMWkjFPPl4uc4wzTfP2EDQgZ0A5YNP5ojjIArX5Je+t1JX7wDmUTTWy3KlhhGDkzdi3Onqe+7JzsODZ1jkVe7a4pUEPqbtVuXqviJQuV9f4cZb/yknIfe1xJt/9ROZdcruJvn6f0s89S8rSpOjw+TvuiI7QrjJwfEKbtPiHa4hWojb7BWubrp7dp+yMveYab/ks3WI91X4J1X+Htpc3YyC0UsZtj/bUToPZSX32Ooch64lHO2HoWu1jjDjFn9okuOkQjm3Nq37VGmTPOVG0k7m+KPXkUpJboSFUEBSuHCr7hzl9rOCfdLhdpGlAXvX2QZGPfO3GcF6/BzESl/+pmJX39P1X1wD3qKzygvqxtyvo5IH/rPLVGRaiFY9XQmbpnPcce/fzXxX89dBrEqR/0SaLDplHHXl2qWfqpNv7iGnVlez7f3cd6Sg1zetZjBgDbcqXzsiTsavH8/CwdZ6C0UP15achuonp27FP3qvXOU8T1Lz+jxqcfU8MjD6j+/j+r/re3qP76a1R2/vmqpPNXjg93fpsqI9xf6RAgNSqEuipMByme90dEaldImLaEhmpTfJQ+NLCszqLTmrkYxQdmMTMS6ulUQ2KSvqSRV/p5ax0HNv+/BxOwEyZ84e2rg3c+qMFOF5czkvi5PmsKs9GjFzhQV67911+ttNAQ1dvod7yXsmFkyoQJSr/x16pbu56N7WtA5ry6kSZrYGto2oboqqpU8ZzZKsWh1YZ5K++r45T93CNoba2qfnuFCiYGqH5ytNrHx6hrYpzqKB9Kb7xcA65Sjogb5RiGE0pFLvEw1N2KEDZXq2HRq0qcGEtvv0gDJUXOGdt5eBIOjcMFWR4ybjVt36ese+5X/i03KOuGK3T00suU9aPvKPc/Zyj7q5OUOS1WGRMjdJSywIrbvABvFRD5qFAutVU26SOdDp4VFagc7H0WhXAGrjeNgjklNlpHYiIphsO0KzpUu6jPtkaGa9O4aL0PWE5RPAYsw+kUGbSi+JNzztASPnQHhfDBICjqH6hFMG03mjpUZ/eZbOiH/m8E4Gp7YVe7256rtYseUOZrs7UgNFiZuMksCueEr8RSbF6NXn8hd3OrAwpdA3ttDTXyakfn0/LU+O5nSr70WuXHT1Y7LOyJD9KhacHq2PC5atd8oeRJYaqigZonRKtrUrxcFKV140J1cNJkNcwfHabyNLa93O4+DRYd1cCqNaqimE6bMV5NIeHKmzJTbZu3OtsMYF6sk1jYvtb5dOAgwPyIgj9QJXTUohgf53cPy2nYCsxSWaw9nBmi6nERqo2PVO24KNXSeWrHxyL7saqcFKNSCvH8cWHKI3KJLBxwRlwkYEUrJQawUJrjYIVrc0SoNsRG6F3ASpr1isPyoSZj1Yh1Pz42OHqnOEEfnDtDiwFrZ1CQ1lH0LZ8xU2n/eIr8UeFcSJdZcxN4wHKDmOUHp8LnatsOpWn1Fb/Qxu/+UMU3XK+6F55V56Fdcndaevc0hCV7CwOoNzNbTQsWqvy+B5X7vR9yURNVExqpofBIiYtomhiow+dNUO+qRcr49a+Vx7KuSXHqoFFcSEbd+EhVTY1UNttnnvdDNX36MSUA4JTmqWPXdpXgsur/epfKr75KhfETNEi+dYUEqPSmG+Su55p5GftM0o2Rdn72BwXqbvyFygGqD6nqIw10jQ9Qd0yguseFq3V8hFxEy4Rw53l1+zGwWqZVSHIlUUGUAVQR2+bGBTsPzOTCPgPrKGCkxkYpOSZKCYC1JwagRsDaFB6iddHhegewEh2w4LzjBj34eNzgGLDqYNb8s87U5zBpdQA5ynrLauuxnvrEnpgdAijHqpo7olB1D/Q7vdJeneXlqsNGD9eW0E2NP2NeADZUkaWuHWsoKJ9VyS9/rfRv/adSJ09QXkyQamJ9kDVvtVEkN03C6k8OVd7UIGVdcK7aH/2r8qeeRa0WR8PFqANW1SIrpfTy8jNi1UAD5AQEaPeZsUq66JsqOP+bKqW0KI+PUcWkCSriM3rj4jRMDj1ydoQq13sMiSMPnLyNaDhsJEdVvvGeDo+LUTkMqKXx7Nm+3PEhDlvqJ8c4vzlVwftaOklelK9yonxUDuMrYdlxsCKVD/tyYV9uPPmKaSaRCvjJUeE6guQdouPsJnftoH7dAVAbQ4O0NirUMRiJI7f1PXWW5zmMMd/WHzEYyUlaeMaZWujjpUVY7lX/MUODxZ5E7FDJhMJDKqcnWj6wN0OtreopzlJP9n4N5u1Re9ImVWxarKK576vw+dlKvfc+Jf7yWh354TeUPCVCeVYMB3PRQQFqR7t7YEgH9t6+b1V9VjgARKp8AvkgLoScNQ1D8W01Ro5T27hY2Bat+imxKsH659KrsyYEq4IGqIZdaSTxrAhvNZBvu6IpFZi6oqJVcMZE53HlBnLnkd9cpJ4+l6dcMkVAi82N2oX17tul1K9+QwmAkE0tmB0drKRJkUqYGqUsypU8gMiFUUWAVsY55CKNRdSflRPse2H2YA1gsV0Zkc/yXDpTLgzL4TqyACsN2fOAFaFD5Kld5LrtlEfbSRsbTgDrRBkcebrJ4zSOgZWSrPkzZ2oeRe9SdHp+vI8Sbv+Vil7/SGmzX1PBx2+r7cB+qaURjLhQembn3kRl3XiL9nzrXB341plK/spEaiiSb3CMcgODVUSSLQv2VSXgVIba42oBKhsXorpJ0TR8jBpxRHWR0aqMjlPx+IkqtBHqmHDVR9IgETHKDA9TPeake/x4Ghz3N4kaD4NRMpnGo4cXT6HxosgRMVNVEBuv0kgajZ6abXcF7KEZ2LhncpgKAb+K0qFj6UeGjGy0CkX3JCp7NZUr66brle/rrdKJ/iqK91VRXKCyJyNf7F8Q5Y9p8FfhpPEqg6ll8XEqwsHVRcerMXacqjAOlRiEcvJpqQMWQDlghSmb+UwASwWsJMBKiIrUQZi1I9zzU7VbKJM2hJB2Ij1gHTkG1hg3ODpj4RiM1ER9iMH4hBNeExGiLzjYXH8vLUQW7T7LMuY3Tp2kwxddoIzbblLebb/S4XO/4vx+UwoOKDPSfog4kAZDnkLQcfS4FttaExNChDmJuIoeWMx8GQ1fjrZXcIG5YUFIGhKDnJWyTbklbi66BsmrodfWG6i8b2FbF8ua2aaRnFUfG+58G8NukxcBSuWkccohJ9nTVmWsL0SCssYFKB82VwN+1XXXa7C13qMIlqj6PA/zWE3TM+d9zneC7CeJKukQVXSaUvJMCccwCawE6EJsd4UZCKIYiSwIDyZX0bmQzTKmJexTaOxjP3N/meSrTKbpnGcqcZh9DsREaD/A7gKsnbTRJozFenLWxqAwpDDS+YrwwdmAZXXWWOs+KoOegVzPQ57vGViAs4YDfUkPXUattT7MV7vpAbug7OawQK3BgKzjoDt8bZjfV2mxwcrgxLKgvJ1cLrKWbSdMj8pDvwvpaaU0djXmoIITzQ2m5wJkJSBUTYpVPnJSOzVeNZNjyTHRKpsUoXJcX8MMeu20ODUiOY2T49TC9i2A1UKjtNFgHYDjQnqq+KwiGtXuE9n9olKYWYK0lANiqX2Xiw6SM3myXEvmO3bdGcxHB63Esvf9R7OV+f2LyH1xsl+bruJ8ywG7jP3qJscju+MBJ9S5u1vNOdrdXntWspjrq0CWzVCUGFhEIR0pm+2sHY7SJhmcm4GVjLk4CFh7md/LsXcYWKGABNPWYTY2BjMfGqXXaNcDs2eNgGVAjcjgiQajwxl1f5ci7mN2WAU1l9NzvkD718GWLbBsMwzZgoPZSg/bR0MkRkZR5EUDVqjSzfEAlvUo0/Y8Ti47mgSLVpszsmcPKogaGrzQbq+EUzBzodVT4mBThArYtpKGKEQuysgLlRMjaRiSPMvq6dkNROPItJ79GgDfNX0CRiQWGQxyZKeQY1iCt6iJR5JoqDoapzqIzvPrn2ugtdhpBHuMwoYNnRuPPb2qvftxkn+8iqdFqC3eflAlwmF+pSkBzC6l8UtRg2o6VgWfX8g12e/R23lXkr9Kua7SMWDlnAasFNrjEGDtY37fCFibg4O1irawUaG1wWHUtlHOT93ud5iFwXCwMTKdMpBr3886rDkzZzhV9IrAAC0DoKUUdWvQ6k0kw9XhvtoIy/bRyw7TIxKhbyrJMhUQ07iADDQ6k3nrWbmclCXobNxUIUDaBZVxcTVcsAGWGYKTwp1VT4tXBRecDzuL2K6ICywZj4Qaw5ivQEarscqVHLsC/a+eGAUDDUSkiePZwzCFMfb8epSnp9PIDVPHqQk21E+JVx01TU7kJDUu+oj0ZE8h2XCYp6i3cG3coJyY6eRH8toZYWq2L5tzffb1m7KRKKJzmtOr5VwLOY+sCD/ON4TzhMUohz0AU2yyCyDOdXP91mnNIKXTuVPoRImYh4N08P2s38N2O2i/DWEhWoobXEQaWBECaOHhep623zfbimK7rW/YePA5qSj23M96ZwSsL7HCS0MDtIQTW00+WgcTVtGbTAb30hP2A9Q+6LufD06CfanEUS7ALKolVGNWDtNsGrKAky+ht5ZbT6XH12G9y5GaDKp9k5ZS68X02AIaxSSlcip5AGbZX02woZoaGqWcTpCPOSkFsCrMRTnsyyfpFxu4VnjSmWz/KhhXhzzWYXLqJ2ACACvt8p9RV1WN1Hg20GtGncKeZek3Xq+cIH+VYskLMRJluNNKzrEMeS2lYU1SCyKCKITpGGYcbLQCpTHmOduMsLAEsPLJR9nk0GxYaGClj4LFeSWw38GoMO1j3S4Yth3gNvD+c7b/lDb9wgEuVE/T9nscGbQRDI8MOkXxyWDZQ57GLPsTFgbWEhzc4jAfJNHX+cXp1VjhLfSCfXzYbk5sK7ljCz0rgbyWSsOlM80AHA9YVhR67Gs+U7O4ZXFcMHmgggurIQcZUEcDvZBE+wXqCGVhX7OtYchXJoEOqwDNZK+SY+TFYmDGBXO8YJVMohFxlbksqySnFdAIJoPWwNVmTEj69dRK9mxD7Wfv4K7IAbi/RqDqdAaV+tQ490MlxcYoLc5b+ePtqaY4ptRnE+McCTX5KzdAAMyOa3k2j05rxsPyVpkBNQKWyWBhLHLLNiaDWVz3MWYB1hFAMbD2MN2JAdtGrINdi+iE8zjmUsBaAgn+cQys0Zz1bwZybbjp3TPPcIY8lpCglwQFOr/lvpxYCforMRj269M2NLKVnrEJ2dpMHMR9JfHhqTRMhvUuLs56md0BzrahFk44hyjkvbkmc2oVMKAWuXJ+551kbYAV0eCWB/JgqUljFfnMcoQlcTMP9ly95b9iooAOYVOT0boZ4x15Leb88mmsQjpQA7JbF4jdvvD76m/MpJZC9LooNSjq7faLSo8q8/z/cM41DekrGBdIbpyoookTVDKBYwFIDsfL4nqz7ZFwOlEObVBMpyo21wfLzPkVMy1GMfIAyHJ0JnKXxTbpRJoFbZJC+yRi1g6HhmhvOECZA2TZcjr3Yq5pMSr1eVi0FqBUT9L2uw0sSqNRoGx66thgcqLeASz7MeP5YVA0KFhLgwEMOVyG2VjBB34Js1YTG2n8LUjeNhrNZPEQ9U0iH5ZG3ZQVRYMbaPTGDMDKoKENMJPGYsAqpeeX0GPrAMvcoJkNkzBjWgkXXgKQ2QBYam6RbUqYFiOPBq49FWTbmrOsISdZQWoPT9ZhNCqtZ5MD0igh7Gug5X5+anz9ZS67HR4hfT3DTgFstXDT448qGVbb49wVEzAXnLsZhAqOmWuAcx7lk8chyRPoINHKADDLSQZkAWDlWwBWkeUqOmEGDW/KYrVUMmxL4Pr2s+4QbXAEYOyHnvdCgJ2RuD7aZiXbLQP8ZSFhWh4ap0UU/W8hlXcD1vZXzWAMO0CNxklg4QaTjzg/rfAqO3xMwluIW1mMNH3OiS6jEQysFXzoKsBbS09bj0HYRMPYcMk+TsLqiCSASofuWTAvg4Y1KTD9tu8e59AIdnGOzbUcRiNXWSPDnFwkNgvTUUgjV08fT0PFksipkegMuUhFDvJhNY/1+BpsfjnMcY5BzzY2ltPoNohaTK+1J13LcKpF535d/ZmZ9FIbThpWGxJoA9G9Bw4r+5xvODmnArmsQi7zKEpzuEZTgyKAKOVYZVZW0IHsT3IYeLbcgDJmmeyVUYaUcM2Flqdoh0xYksr5JqA2ezmf7ci4DdYehqF7zE0T62i3lXzOKtpsrT+g+Ufr85BovUE582iol/71gykq27yIjtV9IlinusEEvX7mDL0Msz4AlPlcwGfIwAJ6/hI+8Msw+5Bg3GEg7Argg/20AcC28eE76T3mdBLoNUmAkgY4pteWZC2HWaFogOVyYUXkLXOH5v5MyspxfpVTYmBFoI4iuRXkoMqpWHocnrnE1GBvZ529L6YBCmC07VcMeDaumGu3IUw6WV8WQn0VHqvkCCz1o4/iI2ATVbD90Jflq6GBZlXddbeO+lHgUoS3IH0tE8YDLjkWKS+GsWVEKYy1v2JgjCoAwEKAzadjFFhNRYczI2JA5XLdaWyTSRvZeaZwnkkAdAh53U/YT6anAMxW+7WeYC99EeKjLwFmlb+/1vhHsixSb1KrvjjeX9sfuUpte19Rb/52uV2e72d5MDrl2/qeb5HMBqznfOz33AP1UUiAPgn11yeAspDpMiRxJWCt5SLWQ9mNNNImDMUmtHoz73fDoANIxWFASSLM0qfTsMYsA8vkxQyEmQFjiDHFnKAxowaJM6alBvooJdAbUJAnclaR2WKAzaIxcpFG28a2N1ZZFJHIzbzkG3iYjsY46qDgaO3+5rfUlXzYGUkfuZHNvFvtm7/UkWnjkTRzqByLRi+2ApqpyVk+YeBkcz1ZnGu+GQtYZctM9hzpo0MWYQ5yDZToAO2mNsv81lTlfedMJU+L0V7y8BEHpAg6Da4vAMM2PkxbfnSONp//VS0ZF6oFAPQROXUWUjz//CkqnXevVPypOhNfkStzA2C5Rlg1MpDreTNqMDw/tPUiYD0Ns94ErHcB6INQX30Q4aPPcITLsLgrYJoxay3r10dQf9GjNwLIOiRrK/O7YdE+ADwEI5IAM23EIWYBqF1cAb0tj95YxPsSGsxclk1t5MFMgo2rZXKxaUH2pwPJYyZxSGKFrQPgPD63AHaaAzOT4gwFIUm5xjD7qSAse35IvLLuu08D7i4bUXLG//rt0a6aMuVdcrkS4/20Zwr5xSw/n1tBHqokSmGP3YbJ4LotTLJN8o4xi/f5dMZCZN4U4mCkv3bZty/vuVZ98x7S0GePqW/WX5R52be1EVnfj0Gzv2+57dKvq/HdBzW48w0N7Jqjhrn/0KLzv6anY8lP93xf3Qf/KZW9LeW/KdeBp+XK2KDhllYHmzEyOOIGeeOAlZqo57HuTwDWq+Slt4MD9A411rvhfpoLjRcFIYchgSTEAMcdrqG3r7PH1WDQOjR7I5K4A93ew/t9yF8CIKXw3uTwqLEKYAqpYXK42BzkIh/AimisYhq+0NYZ2zATpchgDoyxX69JopOks20ljq92xgRnbM5YmUuvt8jDbBSSp44CVk58gOrCkN7JM9Szc7P6yVN2t97d1qOevGxVv/4aHWeSsjn2NgBLmoDdnzFOxZQRhQBhTEpH0rI4/3wY7DBphGnGOtvPpDw/wr5LFaE91GalN18orXhVfWnzNZD/udzJn6n/oye17RsTqVO9lHbzd9W3cZaGCldrqDNRg+2p6PFh1W18Qzkf3Spl4fzyXtRQ1tMayoFVh55Rc/o6qbUNbE4ayDXUHLDsN3JTk/XPmWfoEQzGS8FBJL0gzYFJb5Ov3iOHzcV6zqMeWEjuWooc2nCUJcoNMGUjPc1GObYwvwP27CEvHeQCj9CwycynEnZLO5OEngVgmVx0JizMRgpzkDknAM7GFXPJYQXTcIlMU6KCdJDiOYGaLxtbXGYOcZrdA7PebfYdiSIyJtkoR7gqfclfN12roaoC57kKG6XoyS1S3/vzlPbTn2prgB8F82Rn4Piw/eIAeTPdVMB+1wOFyCHv5Vr+5LPteRFjnklhAR0sFYCTqfHyQycqOyhG+yYEq/Ofv5N2fw4Y+9Rau1N9NRulta8p9+YfKPMvF6h3+z81XLFRw4P1zgC/3R0fGmpSe9lGudNflVKfl5KeljuRSHtJjQf+ocaMUbBGyGRg2QChE3U2NtgJWEmAdaYegVkOWND4X7DrXzDpXQMLoD4BqIXMj4K12slhsIpG3QJ7ttDTt9GIu5GLA4CWACBJXGwyOp/KsnTsdSZg5dJznSqf/Y7Skw00A8rGFfORHLtVUgQw5WbdSfipdJokf2+lwTRjgDk0a8TKKeNUcOZEGBmrmnBsMgxpfv0FtR3ZT6PY4zdDqlq6XM13/1WJE6dqD+qQFUNdhGs9yjHSkDubGuClk+OdYt4kr8AkkXmTbgvrKMkOWDauOUEpQeSk8yZr8P1HpCOrNZyzV91F6+QuXSL3yqfVN+d+dWx8nfY9SD2OlHEePUiy51GGNnVXblXfvmekQ/+Q9j+m4YNPwMrn1bj7CTWkrSVntXmwGQmYNTL2ZD/C39Oh6rTEMcwK1GskwDcD/fQmvfpdGutjEvEnALWQ+aVMl8M4K5TXIJMbkMGtNPpmpluQxl1c4D7Ydoi8dQQpTKLXJrMsHQDtwRFjlYFlkcF+R9kmG5NgslMMsCU4NUvkxYBbMYHimJxi31Y0C29AGWhHaehMYl8M1hqgSnxwb7dco5r576h53z7HXLiKjqrquX+q8Fs/VEYQBXAEEs35HjUJxiRYkVsO20thfSHuzqZl9rnM55tcc852bmlECjKbYucbNU57zLX+8nsaWvKc3KkYgsy9FNoAcOgNctKdat/4Lw20F1IqDDhftzWgTJKdEcmhSnVmLlHfjr9LewFp5980vPtRuROeVdP2R9WYunqEWSP4ECeB1akqctbTgPWwgQWrXvX30+v+PjDMV3Nwhh9i5ecC1ALic+qvL5iutDucJFMzGJsAaRMs2+qAhdEwCSOPJfA+EcYls8xGoG0k2gAalcFRhlkxm4mUmuSMAuU4Lwubp/dbwi/BVo86NDMhh8hX2cEYlnFTVfbcY9r36nPqHnmsu3jB28q89EIKdXJdqLlSGnsyBa3lRjqEATX6OeUU66Uw06m3ACmHba0DJdLhEjFKyeOsw0Xi9KK1Pc5PTQ9ersH1lnN2SdmHNJC5ReUrkbId78vdmmcZ0/mZWTM5Dk7DCGFboXqOLlPbthc1uOVxDW1+SMNbH9Twjofl3o+52PKomlLXAFbriWCNOo1Be3gEg1GVkqRnKIoNrBcDPWC9MQasj6hhPhkD1jIDy5whQK2noTchT5a3rO7aBYMcZgGUjYslUsMkISU2JGXsst5qgNkYmg3+2rxFGqbF6hZrKEvwjuUncgDZZM8kyvJUmRWtZjZsuAeZTI+KVMMVV+vwHb/Xwbdec4AaampU0nWXai/5yEbRS7HMeRNgFEW4gZ1n+Yjj2fFNcq0gTuNaUslLByN9tQsnZ3/ELSk+xIkj1ukiorSLFLH/a1HqeOUm6eD7Girag0E4oI4jO+Q6eljD/a2e8puaYdDzzABkaFF/4V51bZwt18I7AfkhDaz/m3pX3SP3hns1vOkBDe18XM3rHlJj0krAtj/J9O/cIBVzFTnracCyP2/xIsyaTTJ+PcD3OLMAaC6xAICWjDDLRjQ8Nh4LD1AbAWorJmMnPXUv4BxkWQJTA8yGXZIjSdS8NxbZA4/OKAfAGcvMYGTScCmUAEk0Wgo92oaqLJybmvR2J9nTwCaX+ZgWZ3yOgjZp8jg13vYbbf/hZarbt99pn7KFy7UtnEKcz7Jb9JkTfJ3f6yjjXIroNBnUcpmUBhYZRAqfWf2dc9Xxm2vU8LPvqfi75yhtZpz2R3v+8t4RrjspLEJb6cAZP5mugQ//qOH0BerK26n+7IPOE1M2BOn5TXteVo0PdqqnIkt1m+eq+TPAmf97uZfdIa38nXqW3a3upX/W8Kq7Nbj2Hg1sfkQNK+5Tw5EvpfYOsDndbf0RsCrSk/S3s8/QA4D1fECQnidvPY+5eA2T8TZMewdmvU/eGgXsc9ZZ7rKhqC8BYhXytYbGWU8huCUmWtuQl+008E5iFwDtjaZojo5AtpAS2GUj4mY80nifTmQ6gbOLjtRRmJIOCGn2JWlscqYt43jpAJSJXGXAjKNIVgaREhuj/O9/Q3kXfk/7r8cO2/0qV4vSLr5Myb6+yCUOj8/JMdkkCvicrLhopXKcNCKFOu0Q55hMRxn6/S3S5x/K/cU7an/vMbmeu0V1v/uBKi+arPxzcbewc1eUv2p/fp60+AX1p21Xe0mWhjurYNKAcxvGHiayp/UG6/M0uOMjtb5/t+rf+a36F/9F+oJY+idp7m809NEf5Z5/J8e5k8/7i9zrH1PD53er6fBK5NLAGsHHwDpZBivSkvQgYN0PWC8EBOhZwHoGUAysOYHY+JAQvQdQZjQ+A6TFgGXDUF8A1HLAWEnCXgVz1ljVTgNvAozNAGQucTvr7bbKXsDYT644aCMdrE9gn0QaLwUwUgAozQGJYJoB4Jl2CyMiQkmUDfbIsQGcBNCpAJAGUOnEQearv3ee9k2JV/H7NHTfgGoWLtGOcLv/RDkQHwNI2HGOl83n5xDWQY4AvkUC7nQf13CAc+y44XLp3b/LvX0uVnqF3EdxenuXqGPJv9Tx2t/U8ciNKvz9+Sp97BfUT3M1VJ2n/iH7Em0PTHIe7EDCqtVzeL2aKH7bX79Fw+/9Wu4FfwQkD1juuXdo8M1fa3gODPsQ4Ob9QW6kUaseUd38P6rxIMwCrGP4EKcYjPK0I3rwrBkngPXPk8B6fyxYrFsKWMuQui+RllU05uoRdq2hcdfDuM1m6YmtyORW5HIH1n83DbPXDAhxACAPs18iIBwx4GBTok0JexLIEnoybExhmgorkmMNMHKgBZ+ZRBxEIlMohg985StqOrhNdbt3K++625QQYEbGc1vdeWiFfVLYPpXzTbHj02kSHbCidJhjW6lxgJIi76Jz1HDnFWp+86/q3rFIw4XkofoidDVRw0lfyrXuXZUsf0vdpbxXN2yiQBgelLujVgPJq9Q590F1vnCDBl7+ldxv/0r6mJh/m7QQYABj8M2bNfD6zUxvl3vObwHsdg1/8nsNf/Ggqj+8Q/X7lkkd7R5sRg3G6CDhUEO17E8I1mWn6fFvnuOA9Zyfv54NOR1YwQ5Y81m3iDxmUrgEQ7AUIJYDiI0drgaQdQYYy9eG+WgTpsG+mLeD9dvZfjt2ezv5yEY79pKr7DEB69WHAM3YNhqHAN7iMI1oDLAf+Ehm+2SnDAAowDaHmRBLwre/2vCLm5W//nPlvfgURfJZjlW37RKPRTDya0BTSiB7SRwzEVm1QVfrNAfJmbs4zy0h3kg4xui7Zyj/tkvU8urd6v3SJG+1BstSpMocDTfRwfvs10ftl0fd6m1uUdnmL1T40m1qffoiDb18hTTrBrnfv0VD825G9gDrExj01m3qe+nXGnjlNxp+jWVv/Uaac6vcH/5WQ5/do+p3b1PtriVoqYE1go8N5Hp+Is0T7rZWdZUV6OUff0f3GLMA5zms+mnBYvk8li0M9tfn1BsOYIC1DLatAKjVFM/ryTXrAW49QG2hJ+8AiD0AsAeZ3EWtsxGHtjHCj3WAB/N20+s9bAvT/pPCllljetjElDBJTKaRnYjw0d5xsSp5+B8qn/excm69zvkD1xlIaSIAHME8WByGgYcB+xCRwH7GZpseNLDss6zj0CH2REbj+DBJgd7aFOKlPV8NV90dX1fuy39W+Z4tNCSZyapbcxGWnHo71F9eqvaknerY8pG6lj6pnnl/UdsHf1A9ILhgTf/cP2vgrd+p65lfquepmzT0AkDNAqhXARKmuQFpkPqs4e3b1Lx3udwYjLH4HM9ZhP09fbka9PlvbnCY9TzgPEO1/08AeA05dMDiAkbBmg9Yi0bAspuTJofLnftdHrDWAZYzDAVQZum3Iok7AGk3YO2GLRupW9ZF2bMdPhTSAIYD3EmP30XP331S2DIbb7TnGI5wHItEju0BDTeJxd77rbNV/tb7Kn/oae09a5I2xXnpABb8MHXcQbubTeyHkfth175YrDn7JVBOHOYYxmorM/bRGXYRmwBvZ3SUtnO9a/w4v5lTVPr7K9Sw7F31NMMow4jCyfmWkElgFwatJFcqz5fIYe7adA2X7VJPznK17PuX2je8qO4Fj6j1+d+o9W/Xq+eRGzT8zC1yvwhQL2H/ZwMegPUDbjNM6z6yTsOn5qzjbsNsovq6tG3Wc7ofCXzJ2w/77qtnkbE3gnz0TqAfzAp0ctaHAPKJc6/LRjOCnRGNxYC6lOXLDDAkcFVYmNaRRzayfiP5axPTzUy3snwbQG6msa0m22yyA5hbkMydNKCNfNi9sV00pIUBu5vG3GONyvsDEZ6wJ1oP2g1PYnOor1J+cbmqn3pSBVdcx7ECtTMugO0NAJgCC/cCgE3tOHv4HLu7vSeCZcQujmGxg+Nu4/3mqAit9/PS+gAfJfzn2Sp+8l417tkBRC5MRLXainI00NrukMt+wKRnABZUZiCPiVJjpvrrC2FDJcCVS7UZ7JIsd8ZBDWxbC2hvyfXUbzWIQdGTv0Qub1Dvm1ep77Vr1D/nd6p9/171Zu8DrJPGBsciN1hvI+8dKtyxWU/NOEsvePlqVrC3novw0pvBXnqPessGdQ2sj4i52Ph5oaGaDyCf8t4K5cXI3lKAWoYb/BJQVocAlj11yvymMHuIEbaNhAG3BQZuo5G2sM8G2LuV/XbSUDvY3mInoO7GCVrsGpnuDj8x9oSGaxnWO//WX6jg6kt08CtnOsc7FI7ToybaE0kRGxUF4PYUbCThOdb2iEg6SiQdhWC6mamd43o+dxlly3okM+fSr6tj1l3qzrSvwQ6oszJJZSteVvpbz6q/CBaN1FMD0Kxq23JVLvqnho8sgmVJAFQtd2m1BqqK1Vdbqr4y5Ky6Qe6aQnWtfls9j90oPf5LDb54DWBdqqFXr6TIvk1Vn78E8Dkaaj7+s6sWgOW5sTUa7pZG51vzi2/9jR7y9tazyMuLoV56I3iEWcjd+4BiYH0CWPNp8E9p8E9ZZoO7BtYXNNRyGn0FF72C9avZdg3brGW5OcQ1MMxiHcs3sM9GpHETsRazsp73m61Gg50Wm1m+DQZYbCW20+t3jMR2trPYRh7dMXGiDp93ng6f+1VtxJZvJ1ftYd1e2wbwt+EmtxPbcIBbYaodbxPr7LHlDSNh82aKVgT5a+2UOGXejOx9+LzcRXvkbkpV4475qn7lD6p68Fp1fPIKzjBHbhs+shdy2L1/qyoe/ZXan7xRnR89o669KzRUth9w0jVUUajOijLVVxerrS5LQ0lr1fUkDvDxn0vPXis9f7X03I1yvXKnWnctxLyUatB5BO04Nsfd4Gg0wa6mBqXN+0T3j4/VE8jgy8TrXMDbSOCcYF/qLH99SMPO5f08Gnc+ABlYxix7WNEeqVpmFw3jvmR+OZK0AplbQZ5ZQV4bjVXInt3EXMP8OuRqNfMWazme/VVWx5ywfCPStx7Q7P1GZMqAtdjM8i00+hammyOitC44AmZGMw9Tja1sa7drNiF9Gy0AaQMSuIHt7ZhriVXEagu2tQeB7FzXI5F1P79IA5+8oaGiZLUcXqeyt/6mpoeu0uADlyFfNPCKtzSQf0B9w+32GI7dgkYCj8r15l0a+Ovl6nvoatX941Y1fPyQetZ/LPfhA7CtQF0wZtCVr6GNC9V1z6/U9/fr5P4nx3sKhj11u1o+fFa9OQc01GrllN3BP47N8TprJPrramBXq9pzMvXh727RXb5eej0wRLP8A/UGbPhXIAzDVLyPZH2EwZgbDFDkqc9g3KcAuIAwO7+Ubb9EIs1wfAFInqB4HjO/HJc4Gl9GYPuZfhHqp+XECoBchbtcQ05bzbYG7Ao6yQo+e2Uw64m1gGyPFzgP7sDijSFRlAgEMmfArmP9GvLhOhp/LbGabe2YNpa5iljOMc3FekoPGz6j8/l7ayXbdt12lfTZW2p7/yUVPvxbtT5wg/SXSzR074UaeOFWDax8S62HV6t3qFntst+Ysi841Khq8VPqeuJS6QmY8sRN6nnoSjX/4Uq13X+n+t57XYObFqtj5XtqfeJPGrz7RvU/DVj/+LmGnrxFrtcelGvLEorsUg277O/qn4jNiTmLlQN19RpsIlm2N6l81zrN+dY3ncd5X6W4fM3ACvLTu4D0AebiYwCbiwTZzchPuWB7sMaMht1N/jwIGw+QNn64mAY6XSwJ8zse4X76PMwXoL21mDy5JMQHhtpfxfOnHPB3/uq4AbqKcMBjupLGtjBgV3BuK8ldq8LDtRpWr2KblezjBICtiLTOYKWFHc/TIZYC0OcAaLGEWMS5v+PlrR1fm6mev/xc/fddr64/Xa7Be6+U7gGAey5Sx30Xa/CjJ9Qxd7ZqFnxAEUzyh1sDbs99s8bt81T/3JVyv3Cd9DQu7/4rNHj7j9T7yx+o71c/Uc+dV6nx7svVeTc12N8A6Ykr5H7kGvU8/wfVrsI1lqVJ9e0arjKwxmJzihu0X9+qUz/T3g4oWJunqg/f0exx4/UP3yDNdpiFyaB3272tD00GsbYLiQXMf0YsBMBFgQFabLf/g4PotbhFGulY0ECjsZiG+3wkrEazsPlFIX5aiPtc7NRvnhrOygKHjey3HLmy5+3sxqcjrcQX5MLPQ8IAIMyTM2G0rV8GqIsi/bUw0k+f2XMkUb5aEM18jJ8+pWyYH+6reZQOH5KbF8cGKOPi76nnvt+o/bEb1HU/TLrvIg3fe4EG779AvX+9WI1PXa+BRS+o47m/qeFV8llzORDZL3rarUWcYdpOVbzyS/W/crXcT12p3rsuUP8dP5Ju/4n0m59o6A8/1cADl6j/b5do+OFLNQBYA0/frL5PX1Br+ja5msowem0arsFcOA8yHcfmRLAaGshZyGBrofpcBepvIcmRRBPfnqWHpgGYt5c+DgzUe4DyNjJkRmOeAxAWHnAsPg301wIAWwjzLBZZAPJo2LpjAZALkFALKwE+s/XM2yMDx5aPDQOebTxh45LBAA5I5MaFSO5ngLUAdi3AAS7EJTqBu7OOtAA1mA+bPgGcjwHtgyhvfRrurQUBXvqU2EVdVn39BXLf9QsN3flz9dLz++69CnZdo777rlLPA9eom/mul2+V+517NHwXbJh9vwabsxw32DdIWN2FXW97634NPXKxdNcPNfCbH2rwt1cB0k0a/vMNGrr7Wg08eKWGHr5M/Y9ero7nb1P3vBc0cHC7hior1dPYqJ6WOg3Yd4lHHmQajZNk0KIWJ1KmfnpMb0MV9UKVVJyrtPf/pVenn6HZSOJHfjRWUIg+wXi8z0W/G+Otj6nFPgnxRRbpqcjMPOTLCZsfE7bN6HYfI30fR4yG/7GYa8tPF2z3CdPRY80nx30Kc+ZHAASsmwvDPoaFH8LGj2GexSeAusgvSot9ovW5b4QW+4VpcQAdwQ8AuZaV/gHK//a35b4ZG/0bGvRX10u3kp9uZ3oHif/31EJ/IP7E+j/9Uu7HbtbwY0zvuEI9z96roSpqK3tZwWV3F2vr1PfmP9T/p5/Jffsl0q+vVu+frlXnfVcAMHL6J3Lhn6/U8H0A9uxt6lkwW0P71kulRRqqb1QfYA1QdA9iKKyUGovNKQbD+dXIOpvaji3s2CrBOHdZoSoWLdCnP75ALwaE6n0vf33q6625YV76INKLestXn+IU5yFfnwLEAhrMwuZtucV87P981o/GvBHgPOD5HItP2M7WnRL2GUw9x/KFScgZbHECCf2U+ATGf8yx59KRrDN9yPvXcYxvYNvfwBm+CbhvIK+vBWIkJkap6rIf0PPJTTf/TN034+JuQ5Z+e4X6/0jPv/NnGoBhA/fAsPuvwQlepy4Y0ffwhRp66Gcqe/wGNR+kphry/G1me+a3O327al+6W+1/uULdd1yszt9fo857OMZ9FwISee9PVzN/o7pfuVsDa/+l/mTPD/YPNzbDphZI0ghZqnlvDvBEbE4FC50cBuGhenas71R/gw0mNkst5vnL1ZCwW9sefVhzzjpHb9FD59A7P/ajIQPo5UFBmodM2nQBNdhn5hSZnz8arDs+T53G9FggpScEBuWE9SPbHNvfCTuefZ5n27kc0+IT59gU7IEwjX3eJEe9Tn56K9Rb/0LyPiD2f/tsdd54mfTzizV8Lbnk2h9LvyBuJG46X0N3/FDDfzxfw3f+RMN3/5S8Re66z3LYBdK9P5QeuEhdD16m+n/+Rt04w6HUDRrY8YmaZt+ljnuuxlT8VIO3kp9+f6UGAX34Toreu6/TwKO/V+e7T6tlz2dqKdmjnjrUC5AGWlzqpQgeQO7cjVVyN1SDxYnYHH+6aSSMegMwabCuRUM1AFXbCtMaALBSg6016mquVF9VgSo2r9Gexx/TvO//WG/FT8Z8hOlZXx/CW/+kmLbvGFk8RdhXWE4OW27flnhiJGx+NE63bDROPoaFfY69fxInZ/H3kbB5W/4M8SzxMrEoKFR5//Ed9VxznTov/5naL/qp2i6+UO2XXKjOyy5g2Y/VdeUF6rrhfHXf9GPYdqF6brsYllyqnt9fpp7fXaau3+PmkLO+PyJxd1yl9j9fp9p7rlXdA1ep7U5MxU2w7+c/U/+vyXG3X6fmu25U4+N/IJc9pd61n6r/6B711uWpu61KrZCgo4U85TIls/YHGMqnoZNwsTjFDZo29jXhChua5a51STUEOuyuL5eqK0C9QX3tDersYdpSrZ7MTJV/sVIJLz6rJb+7VXOu/Zleu/ISvfqzi/Tazy7Wq5dfpFcv++lpY9bPfqpXRuLlyy/USyNh72ddfvp4dUy8fOlP9NLFF+ilS4hL7f3FTrx06UV64ZKf6gVAeIH3/7zsMr14yWVa8KtbdOjBh5X3+DPOn41Pvu8hHX70b8RflfDog0p8/CElPfmQUv7+oNKevEdHn7pXmc8+qIx/PqD05x9QxgsPKfXlR3T4tSd1+I0nlfnqEyp+6WHlv8B2r92tlLf+rLSX71La3+9l/78q57VnVbTgTed36Hv3r1d/wWHSSpH6XTUSbFJtszpcdeqwG5WQYKDJ/lhMDcQwFTsRF4tTwLIYHJkOwzBP2HuMhxXMgNlPD+i1n7BubZK7DTC7upBroqedRNuNJaKm7+8ZCd7/d2KQbQfZz2Lgv7mf/Qy08wNfhLMf09GwXwF1YoDEj1UbZL6X43a2y93eRn3UQTDtsmBZZyvvXUxHooPO2tHCPGHznRb2nnXd7NPD9vZjktSj7o5Ggg7dhYR1kt+dbe04bNNjU7ZrJRe1NaJOGAjIYIAM10IK2rkf5zdwrAA2u378uYuxcRo3aFS0qecAnjBpHA0zHxzQtnG28yyzdQay52mc/z/Dcw4nzp8UI+dp21jjeILztqktGw0ayTPP1Oad9ycH6+tH4oTlgHAsRrY7YVvP1DkXYrRtR98fP8d/H6cM5P6/+L83kEHPIOH/i//74/Qy+P/i/8Ko0/8HV5Uaed2y5TYAAAAASUVORK5CYII=;" vertex="1" parent="1">
          <mxGeometry x="140" y="430" width="56.53" height="56" as="geometry" />
        </mxCell>
        <mxCell id="-ls0FMZY_MGFAoQnd9G6-5" value="" style="shape=image;verticalLabelPosition=bottom;labelBackgroundColor=default;verticalAlign=top;aspect=fixed;imageAspect=0;image=data:image/png,iVBORw0KGgoAAAANSUhEUgAAAGsAAABqCAYAAAC746+pAAAAAXNSR0IArs4c6QAAAARnQU1BAACxjwv8YQUAAAAJcEhZcwAAFxEAABcRAcom8z8AAExESURBVHhe7X0FfJX3+T0eiCvuliDBQkhwp1DB3bWl7dpt3dZ1a1dfhVKkSIu7BguEENydEFfi7u7Jzfmf53vvhRAusq7t9v99druzV+973/c53/M85/nehNTQZKbjf/j/AzU0WVz5hVChlqkGUU6UZf/fRAWfrTLTwHOrfU/G6efiVyArBZVZSU+gnCjOMYDcZyAn+cnzZd8Ln6vb/0ucL3jK+eXZSUDmk8+syUx5Ikb/Dn7ZNMgLVmRlcLSlPwE5jnQDyDCw71n7DeF55/4r1xIYOv8Z19DwmKFnLmcsVKCrx+lnokZ5dgpHxr+HCkkFkhIyk1HKi5ZkZVZBllqWZWaiIuNJlHN/uSyr4ynnC/6VcwWGPsPQeXoYvKdnfEYZUZL96FlLH66TtIxkXXzSDMbuX0ENybfPRpqBfXpUP5ZGUlifBFwXaNQ53M+bLcr9BZBjYN/PwS91HaKU19I/p4aKqlCq0kLioo0HB/VjsaoOfSyfHu/n16xM3oCSYQYqdHi0X26SN8TjFRxRlXl5QF4WkQYUZqGS0BTw/AKOQKKcKPs/BnkmeTZ5RnlWeWZ5dpBE5GUSeYxNFtWZzjrGWDBmlUKqiqHEjjHlfm291+1/Cp5DlqgjgyNDLprMDyFYNCtkpFD65TnZKM/lzebzBnISUZIUhtLga8i7dghRR3+E767luLfzO3jv+g6+279D4NbvEPB/DIFbvoMfn02e0ZvPep8Ic1uLrEv7UBJwASWJIVRaPMoZo7IckpKTx3hmMQPJYBczpo2rVhAk/BmEPZssXqA4O4+gQrJigOwIXjhWjYLS7AKU5OahJD0aOYFnkOi+AiErlyL8j0MQNb8TwufZI2yOPR5w/cE8B0TMdUD0/0XM0T5b+AKCzxrKZw3ls0dwPewdFwQum4Xog58j3dsdhUkRrG2FjGcZSnJITE4ckBVBJxmNygwSmV6gJa06Dzo8xw0yf3IUlEvRpHKKc2JRmJuAgjyaiMwolIXdRNq+tYj9YBHi5g1DwjQnpC3ohdQlPZD2Ri+kL3VC+utccl22U39D/Nafl7pUi7Q3ndQy6fXuSF3UHYnTuyFm9gBEvzcLcT99S7XdQGl6PIpYw0sY09LsGJqHBJUOy7OyDXDwCM82GHQxyGBjlyGFNB1FxVnI5WjITQtH7r3DiP5mCR7MHoKC6f1QPssJ+YsckbmkGzIX9ULm4l7IWuykXSfSuZ36es9fGdrPSJH1JT2R9joDV2X/r4V0flYGn09hCZ93iZNuvTvylnRB2ayeKJnRD1EzByP0o1nIPbcdJXFBzEqxKClIRyEHf6mkP8bZIA86PNcNIoONHXuJkvw8FOakojjOGxlXdyL4/deQONsJBXNcUDyvB9XTGSF/6oiY33VBzkInZJOgqsgiMuQhflXwM0hQ2qIeSJrbFdlLndV+GShPnvvLIZODUp5PPzBlkOYs7I24txwR9CcHpCztiqK5PVA0zxlJc3oi+HfDkHxkFUrDb6OIXqAoP1e1PEhn7TLAgR7PTYNIZ3dOI1GUmYvCuEjkn9uJ0D8NRsoc3sAiF2QvlNHlyBvrggfvdkI8b1BGlQQofTFHnW5d9slD/apQgWIqmt8N8TMdVNAEGRLEquf9whDCRL1pHCwKHDDp3Jf4Zg+Ev9MNsW91R8obPZC9uDsKFzFerHMBb/A9bt+jJJZ1LD2HtYtIk1kPMR6GuHiOwRDPL2xX5OQgPyUF2TdPIuSv4zg62qBggSOylrggmTeZuFSbCvIX9kAObyaNNyI3XBXpRNaiJ2Ho4fUwdL7gaedqyepNsnogZmoHksT9PGaIrOrXrIrq5+ph6FyBPFsK63MKn1uPZG7Le/Ln9+FA7U3ienFfD2S+3gO5izqxtrdDwDsjkeS+DcUJUWyuM4AUcYU/0w2WMwWW52YgPzsXuYG3Ef31FCQtaIIEFs/E1105oqgajiCB5GlVo7isniYU+ECG9suDPg2GzhcYPJdIZfrNkAE0tzvCJrTlOgNFpMt9Vj/fwHX1qH6uHobOVdAd08dCgfv0MVHH5BpcSsyShVCSmcbUGPbHkci+u4tNeiQ9Qo5WRQa4EDw3DRZnJ6EgPgrR236gHWWNWtQGUUu7I3apC2/m8Vrw3If6NSGfvVhqlAvi53RDSDWyDL7nN4C44arbQmAiHWPsW71ROL83Eub0RtjqN1Ecexsyg69RjbMhLkhWOU94GjR0gGW0lznXvRD2+9nIn9kHJQsdEfu7Hoh7u7ciRqW8/xa87kyj44LY2V0ROL6V2k57vQ+dIeuIofP/AxDyEkhWDONXPL8XSmc5I2TRCKR4bGC8o1lymNEMcCF4thtkCqxMi0LS9q8RP38wL9wHuXQ5CW87cnR0f1iP/jsgxb03Mpe6InpWZ/i92hwpTEHpb/TRBsrge/4TkNrlRMKcWbt6oGI26/2cAQhf9ibKE26hMk/6LcMW3nAalBzJJfJyURbsi9APZyJxXmcaij6If6MfP7Az5dyZsu79mMT/o2AgMhb34X31QdRUewS80pwW3pkF3YXHeJ+SjuQcHf5j6Zoqz6ThyFhE07G0G2PKvnRub/i+NRK5N/cDBVK3DKfCKgZDXEhVkCz6/8JLngh+cziSltjTnvdC5NsDkLO4C/IWdyZpEgTewH8LljANkqywSR3g+3IzpApZUrd4n2omhedUratq+RtDZnMkO+Uv6M2elLb+7S68l94IWuiK5IPLSFY2Yy8T5k/yoSNLNqQh06I8I1FN6aMgEyn7vkLoPOmX6LbecETSm934YT1p0bUPb+iG/hNQhZx9XQbTYOBkB9x8qRkSF/REluxnujFkw/8ThMnnaV0za9db3ZgSHZHDQRY5szsSVr2DylxJefINs0yYP+JES9ZDmXFHJpsyHVlysiY3DWHr/4yQ2d2VbFOWdGGt6ops9lLZ8rByA49J/LeBsuI6VN2XIVNMdKn+UxxwY0xzJEjfpSdLeiJFlGzrUOWavxWELBks0pcmvOlIG98VWQt7IZpkBX4ymzGnsaOZEB4UWQ+RVtVg8KAgm2RlJtKVpKI0OwU+y95C5FxK942+SHm9K0eDIz+sp/rA6k7nt0SqgESomQOuq8niJT3Yv/SB3xR7XCdZ8TJ7wv1q7k43sJQCJWBMjargV7nmbwG5b20vSrIYy2Rmqxymwfi5Trj1pwk0dVQUY6940HOSlaQ4qmLdkwjtD39ouKygqorJqO/XSxE9uweV5KxGQRyVlSrTSByZMln6i0A/KWroWFXwnBQqKIXrEuh0FQBtOlZuUGa73+yDuxPb4+JLTRAjsylLte8TUmWCV96rvYbu/qt/rjq32r5n7X9RVHm/qDp9cQ/EM5YS02wO/DiSdfO98STqcbL0nKiv9aunwYdfMuakoYTrfiQrZmYP5CzUkhX9dlck8UMfzf/9ltDONaYt7EF1MMUtFTcqA4cELOyG+EVdEEPybk1sh7OjGiNsHgfXos6IX9gFCYu70ySJ8vRTQqJEuZ4evD4JVNd/+HlVoTvnX4SoXZZqFl728TMlM2XoyEoSspiihawbfxoPDckynAYfc4PcIXITsshmJZUlZPl/9QZiZ9Ji8oKSBmMpXSFL3Yw87C+ANF3AHg+egL0ckSpLHsuQFLLUmf1TLza+nfFgansEjW8Jv9eaweflRrjzii2CZnbEbZJ1mW4wcKY9vMc1wu2X7XBvLM+Z0AL+k1sjbBad7aLuSJdZ+TfoFEmS3EMqCReTIsVfRr5APlcmZ0URikS5xxcFFSO1XmKVQtKSGbcUDjLZLyTqlSWTz7EsNbfeG/ckWYoXwTPJSkcplRb4z/mImNOBH9SNfUsXjmIuaT1TJQ3ygf8dpMlyMR3REkcGw5HBcGSxZQ5f4IjsBbS0C+35eZ2Z5rqpL/ii5jsiaHpH3JvQHjdeboXLI5sQTXF5VBNcGtEIl4dZI3iaPe6Pa43roxohdHonusLGOD/UBpdGNsaVl5pql6Oa4tarreEzsQPCZzFgqpkmcRwUWYtkpHfisiMDzfaE9ySKTGCqTSYB6p5fBHyuDMYpa74rEtlLRb9lj5g3OyNxsQuSFvVDHF1g4tJOfO5OJK4b4pgFfN59menvWWSpFEjrLgceS4NCVjLJmocHc9pxBHRDOtNJJkefliy5cSFQG/Sfi4dkMSgSmEySlSUz+vyc1CVMXQxgzPyu8J3cFteplgsjGzLYTXCFREngr45uRrIa48LwhrhOYsJmdIH3qy1xg2QFTemIu2yOr7J+Xea5F3mOLIUsec/FEU1JYAvcHNMCAZPa87OYqiS1so/MWOTAgdJFDaIkqu0RWS/2zOlEIgdZ9FskaGlHKq0DcvgcRbP6Intef8QuleMcDEs68zPYb83rAr93DJD1ECTrCYMh6srhiXnpKOYbqpOVriMrhSkiZXFXwvHfQrKQJelGD9pseVBpcKNYJ71pFi6RmPMjSMhLzXGJ/dPlEXa4RjJukTzvsS0RMLkDU1sXPJjbjaaiF9MeSRhugxAqK2peD96/KLIT/EiI97hW6n1XRtjiwogmJL8FLo1qQfKa4+YrrRA4g45Xgv0GB9LrPaiCbgSXTIXJHDyGnsEwuiHxDabbt1vyudohd04X5Ezvgay5A5gSByL2DWckkKS0JTRsvG7s3C7wfXc0ynUGQ0zeEwbjCesuP/bLE2QSt4TbAf+ci/DZ7VgIOfKFLI761AUcZXygZI68ZKaNnw2SnUQlJc/vxofryW2tU5MRHDilA66MbkOSmuPiyOZUkiikBQPdEv6sSQ9mdqbimJ5ITuJiMT8ubDD78j5dSUo7qqwRWw4G961+DIoz62wfpnIXxLGniSR54TM6486rrXCNFv/qaF5/dAucG840SeLujm1Nknl/TI3xQpTcG1OhuldDz2EASYscOejsmSVaI3FON4TPpKJY/8M+nIgzkzsiekk/DgBmKJKaItljtgN83xn10LorR16FE2Xdn+4GtWnwIVmvC1msH7xh+d4ohY5MCvK/Bnnvo+0Ujlq5Tsp8ErRAinBvBrMH7o+ngjjyL43gqB/ejPWnGW5SWcFUWSKVkrRQiBW77kzrTqK4nrCgO6JmU1k8Hj6TKWVCW0RzPWqOjFqqQ77RJmmp7K9S2OcI0ojoWQ64/6p8RkOVSi9RvZdJ3OXRTRA43Z7pj/0YU2MSCUhkHU1V9/w4Hj6PPB9JSuNS4pQ0txOCqfigD6YhzWsnSoMu4sj8IdjhbMF6SfWRsJSFHFAc+DGz7UnWSGXdn9oUP9tgVCdL0mAVsnhjcvMvBHkY3pQQpF2X9zIF8GbT6ZiSF/dG1FxH3HqlKdVkxWCxtlBN1znSAye0QyKPZYjxEGdIkhIW9FCz66GT28FvbAvcG9OIqdGOjrA5gibZw298Ozq/9qxPtrhDld1nagwY3xrhNCBxVFYq3W0O1SKGIpW1JGZWJ/iMpcqG26n0eJ7G5Spro/+ktiRJ0pWkaC0R1SHPIqkvjc8lZSJpXmfEzmiHyLdckLj3cxQl3QNQivu7f8SmXq1x1qU5vPpzMExkveKzi9uMoUP1fWfEk2QpXgTPdYMk68u5rAdtWAz5UAtYEPlgWiUwDS6g5F8AKUQiiYpjAZd6IKM0hSrNWGDPQNnz2t0RPqcTrr7cEGdoIE6PJmFMT9debYqwuV0RL0aDuT3zTfZL8zsyRXbG7Vfa0um1ZHBpNIayng2xw+kRZrgxphmCx3dHwNjOuDu5JTzG1GF6M8OFoXZcimJbUqUcAC/zmVjH0ud1U01pNgdL+vzuiJjQBveo4pvDmuA2cXNoI/i/3Joq6UNieyFzvgPR6TEkLKTi35RncUTkZEcELByCiLW/R2n4BUCTT6KAzGA/7Bo9HEedWuNE/8ZwG9AQx/vZwXdCJ8bGFTFzutJgjHiOdX9eGlRkcXTpyVLB15KVwpH+olBk0UEmysiT0cxrpZOsNNatMKaA62PsqCamojGNcY5E3aJionlOssxKsJGN5ej1n9ICN0bThg9rhAuDef5wqo9k3RrTCr7jOrBWtUbozK4InuIIv3HtETGzHYIn2SBoIoM+pgkHQjMcH9YCBxmkgy4WOOJqgjPDbHCbyvWd0QkhTJuhxP3pjvDkADjS1wonBtnBrY85t5vynM4ImeOAYN7vIzjwfa0RMJvKXdoHEd+9g7w7JKkkH5UkqRLl0JQVwOvjv2Fb1w7wcG2GY2wzjgxrCvf+HJj9G7H/c1Ap2/t3kgbJw9PSYHWDIW6wusGoTlbqfBoMpq8kqiOJqfGFIDmfAVfgtigrnURFze6oUt+VkXRnw61xkWnLZ6oDYtU8Hg0Mzwud0R53XmtOZdjSbjfCjZF2uMs0GUgjoYwGa1ICU3PqfNYwmowQBtBvSkuVsjNnyk/I9kboB5MRsvz38Fv7MW6v+gg3Vv0dN1f+GXdWvId7XAZt+Acid36FKCJm9zKEbPkn7qz8K259/xfcWvk+bi7/C0I2foKYXV8iesfnjyF22z+QsO8L5N93R2VholKShigqF7KA9JuXsWdoP5zo1UqRfmCEDY4MaQyvIc3hyYFzqr8d+742uMM+S/Nic4M6mygHdNZdkSXKmtmGjooBpuRT53M5jw6MeTxxISXMYL4YOiFJlML1BF4nhbY1gdu3WWsuj2iIa+yRLtNu+06UgUH3xjyexPNCJlFNo2xwkQ3vWSrq1th2CJnSTvUlqW+IWeC9sH4mSKGeR7PB9dCZrXBvYmOEzqVtf2MUkt3WA8kPGL08hk7Cp/9/eTGslRWorCznPu1Sth+9Hp0JjRwrexyaMr6ngu8EuIViteQ1K8pRLtcsL8C1v72Ho91b4ZxLExwb0ggHmBGOkSzPwU1wakATnOjLlDiAaZzmozKPRD17bvDpTfFDstgo6slKnt+TgWR/NJ/BZw17BDlWdVuLJCKFuT6V9SZZlmw04xeyYx9HqzzMCudYF6TRFUMQx7qRQrucwOt7j22Fy0xTl4Za4yrdof+kjoiVFExFJi/iAFjgQHAQqMHQFXE8ls57SJzaHLdfZcP89ktIu3iI4ZNgalDCiJZwSyCBrYrSKpBt0qIIeB5EQQVEJlEo+zQkt4JX0MgWEOp5HLtdu8DLyQYeg21waGgLHBnUBieGNITnwEY4NYjqGtIK+11ssW+SC8kiF09Lgy9kMGa2rkYW7TPdWJLUI1EaSUtlaktlwJLnUTW0rI+D6XNuB2TMaYvUuR2ZSrsgZGJLXBlsxppD98XR5j22LQnqxWvQlvN8P9aui0ObkKymuMWm+MG0jkidxz5nrgPRgSoi8fO0S0ESjUoUm+qMufbImNQUN15rhciDK6iLUga+HKWVJRz1siUBZog1JdBUljLgrClKVcTDJYPNY09C9pOiaijmf0WgaiuoKxkRZRpehcTn5WLPzPE44NgIZwZY4uAIaxwY2g4nBtgrsk4OaqzIOjG0Nfb3bYz9U/s/SZbiRfAcN6hm3b+czbTSkmmQQZrP4DBYSbTRMYtcEEMHlbLQnvvYRJLQYAY5kCkyfEEfhC1wrobe3N8bDxa4InCmM84Ob4PjLk3hMag1Tr/cHj5zXemiBnDpgotjO+IoR92JAS1poWkcZjjjwaJ+eLDQGaFUdeg8J3U9/XXD2KSH8Lo+i4YjakFP3Bxrh300GXkRPmp0azRMbySoUv0nL/4/iSliSIuoI02lpC2iXFRBaLhugBTIeU+gklco4ZWopDIqmHwWc598TujBjdjX2wZuztY4zpR3jPXq2OAWcKeS3OlMPaiyU4NbMh22wFHWrkOT+zyHrOe4Qf8vZ+nIsidZ7RVZySRLfjYvjnUjhnUngMqK+GQist1XosjXC0V+F7g8ZwDniYsouH8ZOTfPI/vaOS4vIM+H+wKvId/3EvK9zyPr9hlk3jqDnFvnlbMqDriGYnXNM7w28cR1z3I/r+F/F0Unt2JtnybYvGgG+ahQKY8hNfgqVaqjGkQx5TxLEcUDQszDBPl8KDXK+ygn4VxWS1IScXjaSBzoZYwjAxqRIJI0qBnRFEeHcjm8JU4ObanIEhzrawu3ib2ekQafmBsk5CS9wVBk6ZUlZLXTKmseG9lZ7ZE+tz386cJCV72LiiQ/3mKRulHDj6SFpAf9UkafQN4j4ZGlbMtL1uUc/bL6dapD3i+voEN78ZF9R4QeOa22s3lBeb+hVznfJQmrkkqqZJQrlUrkehqVHp8G+a/qttIRP0SIksEhdx3wwzLs7E7FsJ9yH0xFDWrCZTMqjJZ9iJDVAiepLuUIRVlC1mQnRZb2d5ANGIzq1r363KDvF7MQMqMFeyTWBiFrnpDVDTmzWWNmtEHgXyehPNZf3aK0f1JWJZsYBB9GUMZ1geyTwfw0SJDlHDV2ZdsAWB4UlBYKc7B+zkT8NHYskMqyL8fUANJT+firWN6vW9e/+JaHkBdPeQjZp1+Xl35f1ZfsS4+7h02vOuFIbypKkSRoiuMk6TgJOza0OdzZmJ9kz+dFok6J6vrbMg2SrHyS9XPmBlXNIlnB05srspJIVjILuJr6YVEPmdERcdu+ZqTKVGDFFalRrHJBNUj0H8pAtnkmizw0LNysKU9AFfMirjNNyTlyvp7Bx66rA18Jl0/i/U5NcW/9Dzwmh2V/NsH3G3iV83Mqy1i3ktNQGJ+E4oRklCQmoSQpGcVJSShKTESxbCenEKlqWcxjRTym9nNd9henxHN/JMoS41GWHIczK/6Mta5UVF871l7WKlEUFaSgI+sY06AH06CXpEFFlh0OT+r9893gI7K0ylJpcB7TIV1Z7EymQBb6VM/92sBIfFUR1qYFKecCKe0KjLO4Wi3kmCSbYsZeXBptNVGqg3ZdjhcQRXx/Gd/PhMX3qetUvS6h0hBv4Mw7S/G5UxfkBPopTnOIMlWTuMVTnnhpcnBjxyqsnjoau6e/igNTx+Dg1JHYP53b00Zj+6QR2DJ+CLZOHIYdU0bR2Y3BnhljsHPySGybMEzt3zn1JeycPQYHZr6Gk5MnEuOwdZgjDrM+efS1wdGH6U+I0sKdxkJfs7wG6ZVFg2GILMWL4AXmBn0/nYegKW3Z34iiZI6sDZcdkDSjFYLm0WZ77VKBEBLU6C/nKGauk/wvQZUxTX2opZwiY10PCXIZ/ysSeqgC9pcKkipL5f1UVAUhxBUTBYT4LvmfHM/jSmGltKHlyAsPxkqHznD7/Zu8jSL1eZJqlVcQqHtkOlWKlDthJogLwvKXXfFtBxvs6miL3fYW2NTVAusdLbBO0M0Sy9vXw5fNa2BZmzpY4WSMDX3Msb2jBVa1aIDP29bHlw4N8ENXE+xhH7Wvly329LDGoX5agjxoJjxozz2YBj2YBj2HNMVJBalVbJJ5zjm2LV7DGpNUW1r3f9MN+n46n2S1Qyx7LC1Z7LloLFJJVjAdYdKp7erBJWSqNghhKtXpwNhoHa5EjtvVXqIaMdDqJN379BnzX3mdX78Jn7Vsg9DjB7glg0TY4arcA29Jv1lOospLtVePPLwDy7o1w/7uzeDZlU0ryTnoZI39zrY42NuOlrshdnPfxg5G2NKxAbb3aYDD/c3g1cMOu+xtsLqLFdY4WmFHD0scpTKOkZgj/RsqM6FSHwmSXkoRRsiMhRbNcXoI2xIeP89+6/SwRmyUbbRk5T7DDVY3GI/NDerJmkqyFghZbZ4gK9lLS1YuUczISGOpH7yKH5X3GDHlbQ29JG2yXeVxVX64R1KbvLICAnHfzQ0+Bw8h8NBRBAvcjiDw8EH4HzmA4KMHEHRwH5vf/Vg+fCTWv/IKKjLonPh+RYd8pHy+OBGuy1VVKuU+qVUnlszC+vaWcOvOQDua4VAPU+x2Msf+XkxJPRrDrScb1W522NbBFJta18e2bnVxzNkYXk5NsKNLQyrZChs6UpVdLHGIbk5MxJEBVMnAxlpDoRSlxckhAipNLZvjDJUlZJ0jWV46sg7olPWz5gbla30fpsGAyW0QzVoVP6cVEma3RBydYNLUFgic7Ygkrx0MQiVyGIAyjTbw+lcZx3cJO/9Chq9YCDP4EiJlJkH7znKVt7hMjMTu8QPwmb0dvunSHMs6N8cKB0ETfOtog++6WmNVFzv84GCLtcQ37Sxxad1K9V65mqhTXVoGibbQKe5KdfcRGRyGr/s6Y0XHJljdvTFW9bDByl42+J5Ere7ZAmt6tMaanq2xulsLfNepMb5qZ4NlkiJ5zuZerbGc+KxLI6y3b4odHS2x38WallzIaqQa+odkkZwThCw92BR7DH2cLKWs4do0eGCadrrp580NZiTj/ifz4K8ni0TpyUqY1gL+cxyRSLLkxYGqXqUJ4bi1dRluuW0k4clqXwFJLFHj2sBLgse6RD2iiKNeI2m0tBynPngP3zepgR3dLLC1s5nCNmJLZ1Ns7lYfuzobY689ldDZEus6GWOlaxOkBd1VhIhZV5zzUqoPqkJWSTnNCj8zgw4w0N0Toe5HEHKKKj2zFyFe+xHicQihnkcQ6kWcEhxFyMnDCPZwQ/BJN4RxPdzTHaFnjiH00jF4vbUAa5sb40AfK5LVXCnrURpshpOiKqZAWXqSnIdpkC7wPM87N1hH1uBHZP0sNyg16/4nc3VkdVRkaUGy6BD95nZFgo4seSX6BmHDmCFY1qQOPuloh71vLURxfJw6prKhBFHlxirESVQVWawzzJ/lxUW4s30XPuvYDts6WWILU8yW7rbY2N0G64i1VMBPLOLbutpip4MdNnZpjI8cLLDvz9N5qQJJqBwcvOZjZGmZErJKORg0FTxY+pTB8y+9SnDw9Xn4rnl97O9tSZK0yjomdp3rx3UG4zGyqD5PknpaGQxtGnxE1vMMxjPIKqHSvD+ZSrIaI4r1Km5Wc8TPbI1Ymb2Y3g73Zzoi5iLdIF/pAfewe9gAuqTaDGZ9bOhkhq9aWGDn9MnIDY9Q54iv08jkmciQkZN4VghxDK40viqYlPyGhbPwQXMW9k4m2Nqdy66W+KmrFX7sZosNjqwhXYQwC2yhY9vVuSk+ceDA8XJTnyGkS11SLxkXDwcIt6VWaUeN9sPlXEKaBN2ULrekHXjURugh58i9yzyjdpYCSL5yGSv7tMKaTnWwz9mEarLD8aFMg0xp7iTh+OBG8BjYkETRXAwRwhqppecwOkVad3GBZ4da49zwhjzPGkemOjPuJOqpZD3DDYrB8P50Mvym2JKsVoif1YJktUHMjA6Im9IK3rO6Iuv6fqQG3MT3Y4diVUsTWl8zrOhhjI1MWZs7NcTHLaiIia8hMzRIPWCl2HExE1yXuMlUjzTAErRiqS9czwgOwO4lc1ivTLG6kxUVZoednWxIjhVToBV2sWZt6mVBF2aBn1qbYdPLw1GYHq+u/8RLkaRbCvjSiU5bz5QbMgB1L9VAVZZzKW2BXOTCh+/j+y4NsNPFmGRZUFVsgqmiIwMaquVxknRyUEMqqjFOsVadYt06PawpTo1gvzW8BbyoqPPDbQg7eJKso1PEDVYj6yEec4MkSoEHqCy9G7z/6RT4T7FD1DwqamZzRLFWhU9qBb8JDXFnWhtEfboQ20a54K9NTPB9e1P2JSb4tp0ZVrc2xuqWDfANCfxz4/r4ZkhfRN24yqeUplfMOsewRE3miiql8dWwZ2IqlCjKK68Q51Z+gb+2bYpvG7L/aWWJte3qYQVH8Vp7E6yzb4A1bevh0yZGuLzyK75Bx4ShlxoZBE8R1YmRUd896YmsBiXEp0CmqOS0rLAQrBzcFd/b18QmusStrKVbu5gyPZuzzlpiF1P17p7m7L2MsK93Axyg8g65muNIPwvafxu6P1GbHc4NI1kj7HBSyFJuUMyFEEayhDAF4YVu8BFZjw5UJcv7kynwm2yLyHmtSFYzxLBWRU1ri+BZLREwswV8x3aEBy3u5vZUVPu6TAlWWNXeBmu4vaZ9fazrYIK17c3xcSMTfObaE2Hnj/JRWeQlLvLkpbJWyDhq1SYNsQxs9WJ0gg4dxg+D+uOfLSypMg6CHmb4gelvE9fXtDXGt67tkRZ4V3e+dvHES66ngs2Ux3pVJGA6K6VKyqpBqxyNUrkC18UcCVSPpu6tHPe2rsQyBzNs71UXO0jIrm5Cjq0iaQ+b471OjdTXIwepOjdXUxzuS6L6W7CesbbRVBwf3hynaNkVWVTWY2T9nLlBcYNClq+QxTQoZMXOaImYmR1IHlU1rwXiZrRF3PSuuDSkGTZ3NsIGB0umv0b40ZFK6NaAtYYujgRuZD/yMQvxp307wNddejNKSAwAU4t8fafSjKhKt5DWSA1jvnJCfLFj6RT8QxTLhvQHJ1vsZt1a194Cbn+cTe5lWurpXKkDcoJAXfjffOUn4PjrY+lM2Zv1scYuJzMSYgf3Qc1JBl0gY3FiaEuiOXusRkyBujRIaNNgC3iMak1jQeuuS4OKrGemwRdwg96fTNaRpU2DcULWjPaIobJiZjek2WiCqFmtEDqrC04PbYYt7YyxpYMFiaKd7lkPa7ubsHEkcS2YwtrUIGG18BF7mLsHtM209FfsxrRy0s0RScmvkHkncih9kZT+4pwIXPnn+1jRuRm+ZrrZ25lmw94WoUc2qOsUU5YPFVnt9ZAeRRbNUEQsYu76IdnbByn37hL3tLh7D8lEEvclenNJJNy9Q9xG4j0u7/giJSgAIW4/YvuQDtjd0QTbOxqzTtfHXqY6d6a140MbUjm2OE7VeNBseCqymtBMkKRhTXBmeDOcHtkSHiNaKRcoyjr3LLIUL4LnusFk3Pt4GnwmNsKDOS1JVmOajCaIpX2PmSmkNUe0gOtxczsgakY7nB8mdroue59a2NDdFBvo5DaxaV1Bs/BFxzpY3qIBljexZKPbEXfWs4nVyA+xlNMgFjEjygwIN9WMO5ljcMUtiva0kdbA2/0Qvhpqj6/tWB9GDEZuXLDiuFzkaFA0kmDLkc8CKadUpKZhx+TRbISbY7NzS2zuLWilsMW5Fbb1aYOtLu2xxaXjQ/zYsxV+6NIMa7q3wLb+rbBnYEvsc23E1GfGjGGEzQ51cNjFjDbdTuEkXaH8KJsXcUb6KOLMkEZ0fgJxgE0ULjJWl4Zb4dwIazbOFjg0Xft91s8ji2nw3scz4DOhMclqQYLsmAbtEE3CYkRh01sjenorrhPTuT2tOcJnt4fXSDq3TjVovZkWu9Byd26Eb9i8fsQHW9HSFD82s8YPbRvhM4eGuPDN+6gslK8x2DxXlkO+ZpEJ16oy0bBWVLBX0u9J9rmEH18eg9Mff0oqtERoSnnUEFlCtrqu2HIg7owHlnduiJ3damN/T1PsYdOtx162Cft7WuNALxvsZ93Zx3S7n9hG8/BTu7rYzMG2r4cpjvZrxLTXEFsdTeh6jbC9Sz0c72ejbPoJOsKTg6gmWvTTxFla+LMkT5bSUwnOkrjzPHZ5mC2uDLdUP4F8fKg5yTLwTXFVsrT/gK5ACpl2uqmqwXhEVkuqiERNY0qc0Ygqaq4ljIieTnXpEEXT8WBWa1wYxj7IoRaJMse6rk3wNdPWJ+0b4Du6xHWtTDkaram2+viEdejEn/6E8owMNfLlaw29NdYHX2bkK6g6DQkr0ZTwkAZFMbEoiI5XFBSTrEoh6xG/j71kpl36KJQX4vRHf8QPnW1oAphKnS1puUmKs41a7neWH/5shIN9ua8vCSMB+/pasyk3xo/MFNtYg92oqCOsS/KerV2NsZnWfVe3+lSULUmyI1nWaukps+lMiWdIjgLXtcpqxHUaCyFruGGynjE3mIJnzQ3e/cc0eI9viHD2WFHTbXVkNUbk9KbcbvYEIqfaUoHyi2wtcJa5eGPn+ljrYMF+xBaftTHBV63qY0VrI/zUoT5trhHW0zF+2MgKe373OoqzM1S8SyX41QIvTk4a2hIeyCT0h0WFIkRlHAwpiy+tSCuRF3kPW15xYVNN9ThZkyxr7O8jRJEYF1sc0GGvqyUODBBYYYdzA6bymhx0NbCTBB8d0AzHaCT29ramoaqPTcR+GgyPgTYkSQizZZ0SsuzgpSPptJAmYB07M0xL2gXWMFHW5eEWzyTrKXODVFR1N8h1LVl2JEvIYHM81QYRVFbEtKaImNr8cUwRdTVmmrRDxOwWCJltz5trgs327I3Yg33T1hxftKmPL6Vf6lifo9IU2+molpPA9xsbY+eieShOSFABLmLzbOglcc/n/8u0kpYkgqKR9adwpT2P7wlx34h1To3hxubajTZbkdTHiksrkkQCddjnYgk39kIHqKrtMhvTuRYb8rrcb82Gtync+rJesSnfQlWJutz4fm36kwZYmwJlpsJL6hTr1aM0KIqSpfxiX1PWKx1ZI5+RBh/iBdzgI7KY4qYzDZIwSYORJCtyagui+UNEcTucZIVMb4gwOsewme257oCLQ2ywrWM9fN/GAp+1M8GHVNMXHU2xnrVjSzcrrO9UE6ubGeEza1r8qVORGhmksqDh8IsJKWTo2fnIT8jK3I/MYHFRTYzqpSWKx0rz4fb+TH6WETxYmw71tCNJJEalQqqIFny/gpVS2cF+jak81l6SIbV3Z08aAO4TZcn+7d1MeawBtnc3o7mwfSZZYjKkTmnxOFmXSNa5Z5GleBG8iBv8aBruv0ayJO1NsUE0lRU5lcqa2tggHkwlUVOYNrkuiJxBQqc0pcJM8D1r2JetjJgKrbCspQXWdWSK6WaEdY6sCWyeVzQzwd9suT3GFTn+l1WQK2XCVaceLSV0j+IUlZxIj+zXLVTqFOgIkn16fWb6XsePrnRxXSxxxKkhSTEjKeaEfL1BslypLh0OutoqYnayAd/UqS7Jqse0Z4PjTHEnBlphL9Ph1s7G+IkkbqFJcSdJXoOsCRt4DbahsbClA7QlSbTlQ62Z9qzpkrmugzjmS0yFV4fa4NoIC1wYZYmTQ9k4K7JI1FPJekZTrCfL5zVbhE9rgujJ1oiZYk2yGpIUIayhAXD/FEFDKpEpUcD9wXOY61+yxMrWNfBdE2Msb26GVW3rsHk2wo/drWj1LbCSKfK7Vsb4yKYG1g/tiuhbOsJIlnxFr/25DPkZKkOK46saWcKxQF6XV3yCjfZmONq9MY0EVeNqTJJMCQtF2gFXCxoLEtXXkmSJ4qxYU5mqO9fFDvaMB6XpHWiBo65G2M0BtoVkbexijO0k+rj8utFAS3gpWJEka5wheWcGW5EoCx1oJGjTzw8T2NK2N8RVEnedyro00oJW3wRHDJH1EMoN6qebSJQCD1BZD91gdbKmViXr2XhAwgSyHs4eLZCNtMcAC/zQsia+bV4X37Y2xUr5Popp6Sda/NVtjLGMzfO37Y3xcQsj/DDUCTGXPBhq/Xyedob8qS89WbqXnreyjDRsmTGSbs4Mh3pRVc6NmPbMWJ9EXaIsC5JFkkiWWz9Jg5asRTQPneqo5QEXKxzu35hqo8XvxX3sI6Ve7WAKdBvI3opKEqJODSJZg6yoKmuCpA0hWcMsmVUsabYs2fzKDDvJkt+GqUbWSZJ1eIaWrKfODT7XDX44FfdfsUGYpLRJVoiabIWIyUyLk5nq1PL5EMJCJ5Jkukj/SRzZfODvqbB/tjTGtx2tsZqp6SeStpGucU27+ljWpjYVVpfqa4BlAzsg8OQWhlzqFFPbU0Qlr6qHlNWXaX2+Ik6fwA99W2IXzcIBuri9VJabE5XUh6oS50fsdWbg+1krwrbTim90qK3I2tnDhIbCFocHNMLePkx/3WqRrPok0QR7eQ13pjtPkuI1yIIpUEByhmqJkuVZkiM4Q7LOsvk9zx70wkhphhvhGsm6Ntwcl5gGTw2j0xSy8knWs93g09OgkOX9ijXrENUy0ZJkWeLBZFuEGSDlWQibYMP3kbhZjXBzvCV2OdXGN83q4Ns2lljuYMY+Rr4RtsBG1rE1bWvR3tfCqtb16SDr4SvnhvDe8R2lIjMb/N9TCJMaJZCXfPWiyOLJ5/7+HlbTfR7sbYR9JGY3yTrCxtfN2ZwOT9KgNgUKadu618MG+5pUTj0SZUpV2aif/TvcryG292pAC1+Ldr0Bj8nPXbARJimeg8yZBqkmAdPfWSrtLEk8O0TqFUnS4fwwa1wYYUNyGuLyiMYkyxZXRVmjLLRkzXxWGnyeG1TKohsUZZEsvbIk6KKsB8+BVn1aBT6Y3IzXaI7QGdbwm2GOi2PMsZdO8PuWpviqnTFdmgW2d7XEjk7G2NCxJlZ1rIOvOnB/mzrY1Lo2lrGJvrh6ufr59ae9xH5IjVKZUKeq9MRkbBg1AFvZPhzpUwd7+pphR58mOEo3eMhZlEWixFSwVskPxGxwqEFF1aa6TFSdOjKA55IsqWGbqLgfu9bDJqpKGmiPQfJloiU8B5oqkh6RRasuBqMaWeekXlFdF0c2pLKqkMU0+JCsx+YG2U6REy03L/BDnnf+Phn3XrZkGhSyLBA1yZyBF6Wxjr0gtOdqXWIw3xtEZfpPaIIbdEP7WBOWt63PtEjX1cUCm7taYUMXc6yxb4DvmA7X0ISsZUpc2cEcn7W3xd3ln9AMaqenishbkRKPNNGF2t6LbMnUokxBic4e7N6KtSTdrTfTGRvcfX1MCEsc7s1eigTtpap2OpmTADpSfuaGTubY6VifRJrg2ACmv4ENqUSmaEcTqs2IhoNp0KUBDoywxVG6ulP9myhT4THMGMeHWeDYUFt4DLUjUbZ0ghY4M9IUXiMtcXoUXeBIW1wZYY7rVNj1wU2YAs1w6aXauPhqA77fFAenOKm/DCR/60X+OM+jP0lIO899zyfrb5NIloWOLHNETTQjWdymjTdEzNMQNpnqFJKVKpsidEJT+I1mjzHAnIXaCitb1cLKtnXZe5lz9FozONZMN6ZYzQZ6GYlcRvV936YBvmhriiOf/h6luVmKMG2bJZO0hcqAqAl8+nX1DVlJGs7On8QerzbrE91fbwaExsKNxuIgsau3ObbSnm9kDVpvX491k4R0o+FwMsPx/uY42p89WB8SSUWt62yEbTxvV/e62DOoAdxGmsFdyOjPRre/FXur+jg5xAInSNIpNsEXaTCu0DRcGFGftcocZ0da4xJVdXOICW6wjbnA1Hd5VD1cGVmDJJrQ8FjQYIziKMshWfp/yVPPjRbPnhvk9u2/VyNrkpBlRbKsSYIQ9mIQckNJWugUO4SI4ZjSBCGTGuLmaI7EgY2xi2lnDU3H6ra11XdgW3raYpOjGA8zrHFgj0bjsaJdA3zb1hj/YJ3b//psFCVrZzukl8ojOeIYq/r19PuXsLFvJ+zrZcWgmxEWCrtJ2o6eDdjUmqovMTfYUzFUza5exjigviS0IlHsp5xMmBrr8VhdKs8IO3oYs06ZkyQznBhcH6cGGuMsCT3fTyDEsc+iEs9RkdcGmuEmSb06tAGdn4WqV/IbnLeGUFkjjXDh5Vq4MbIurgw0wfGBLXDpnRlI8ToCDZWl/eNoYjL03GjxXDcoZN0lWaHSQ000RySVFT7JEqFCGM3Gi0LOl/QXRIUFUmHBXA8hgf4TGjI1NISHK0c9g7WmbQ2sbFcbG7uZU11W2NxdVGaJ9SRsDU3CqlZMi81ImG1tbJvxMvKjtD/boX57RVZYsLTziuW4se4LNtx2bGitsINq2c4GdjNT3Aaah43EBqa9TQ50eOLsqDK3fiSKrs6NwZftrY606F1ZMyX1daU6+1I54vakRvWvD3F7h9iK7KX63Ng0H3C2VRO9XmySr/Q3ZaozhxeVdoTp9nB/OxwliTLhe/0lK9weXAuX2OudGmYPn+8/QWlmIlLkr/4o0ZATgeLmEaooiyQpUFV6ZTENPiRL3OAEMxJmSrK4Pcn6X0bwRFuCS5IdTJUGTzKhYm0QPJ75e5g5Tg0wxe4eRmyWa2BV+zpUmCVTkDXtMhtUR/mZQSNsdWCwW5tjZbO6+LxFLWyfORKZob7CDlnSWnuxFvIPVu2cPhLLm9XChs6Sxuphbad6+MGeddChDtMtr9W1AXZ3p1kgMYfp7OSfUjjkasYaRsWxEd7UpQ42dqpJl1oLB1nDjtOanxpkjAv9jHGGNv7o4MbYNLw1Lv9jLkL3LkfQxk/hMWco9g1sqr6r8hhgjV3DHHD7fR7f+E9Ebv8aV/40DfuHNMcxDszLc0Yi46Inb7ZMDbaIzHiUUVHyl+uqKkqPF6pZTyqL26r+SB16MYQqopgCJ9kQlgiZbEJ11UfYJGOm14YIGtcIV5nXPdhQ7mD6WdW+Nla0NcJajvzNTIu72IDu7UaD0MMC67s2xkb2Zes71MHHTZg6Rw9Cmrf8Mp/6clm9oq6cwecOdlhHJ7mWzvIHB16LpK1nM7uR19oqP9PuYoJDNAtHmNqOurLHcrLETjnO2vQTFbjZkXWK6jrkYqoC7zGQahpYF5f4vgtU0J6B7XF3/efMwZHIzwzmAA9HcegFnF44nOQa4+jwNgjZtxmID0dhmD9KYoKgSX+Ae+s/xo1/vomypFBVc+Xr1xK63OzYWFSki6F4vFbp8WzrrieLNjuEaSt8vCkixpsw8GYMuBVCJv4rsEbIBEKtkywSH8L6FzzBhPvNSRod4jhb3BrNLp95fB8L+Vc0HMvaUxGiJqat7Y71VF3ZQGxzNtUpwBTL6Ca3DemBzGvnFVGSBU988Bd82ZiNba+a2NytDnaQ6F095bc9TJUblCmlozQZR+gOD/Y2o6Kp3K7mqkb+xD5qK8na1d0IR3pTRf3McL5vA9YWpi0Sdt2FBPa2wK7Zw1CRFIjsM+sRu/NNxHh8DBTcRPChtdg5YSwyPE+jPDIUqeu+ROy70xDHupR7bDsdUSblL1rSutkS3rCmtBIZETEofyZZz2iK9WTdGc2UNZEKIVHh44zp5BhkFfDqhDwFE2Qp51d7j5A3wRJBkhInWnAfU+R4W/iMMsVVFuUdfWyxnM3xyna1sLqDpC8jpsYG2NyzLpVRD9uowO0M/i42t5IiN7s6IOLMIeTFhmOdc28c7WzLOlOb5NTHYRqLI7TpR9hXHXZh2pPZi14m2M10t8OR12SalO/eNrJ+bepEojgIDrMhdu9ng+OsYZ40EodZo7wGCFlMvzQsnsvfhSbuJnK3vAlsnIKs1fOR77sPublhyI6JRekVb0R98BZSlwwDlgxExcz+iHlvDhUWrIhSo6qMrrWcYF+YGBdPcyF/wFPPyePQ1aynzw3erkJWOMl6MF7Ikm198P9NTLBQZAWRPIH2n++xpsoaMy02xyGq4UepYey5VnYwxSp7C6zrxH2dqTBJVT3qY0svI6qsAba1o3t7qTuOLZ6A9a0b4Vh7Sxyn89vvbEZrTBtOk7GP9Wk3r7mjmxGNi/z0lTEJItGd6mA7a9MeqvAQXd9x9mEnSNSxATZwG2iDg0Mawo1N7ZkBdHJ9qPLBzRB/aSeK/I4jZ+siYMMclP7wEcoi79LapCLvmhvS35iCwqWjUfnWYJLVFyULhiPqvbkoidCmbPntfk1pKfvGMmjKypAUHa2coPRV1euV4Llu8NbfJuL2aFMEMoBhY6kskhUynsoazwD/EmA6DKCqHoOQRzUGv9IY90Y3xnGO4vVU14r2bJ47mGEVSfmhQwOstZe+jGahaw381KUGdjnQ4VEp37GW/cjj6neruhuzd6qPraqhpQ0XBXK5wb4W6xeNB8n6qTOVSjOxr0ddHHUmGXRy5/sY4TTT3am+9VivjOji6tNgsGfqXwee7Nn2TXFBceRlFF3ZiJLt85GzawHSr26RH51C/s6fkPbWOGjeGAIsHojy3w1C/tIhSHn9NWRuX8VUmapMhaa0GJriQi1KS5AcE8UMmaLMUXUnKKjyTfGTaVCUdeuvE3DrJVMETGAaZAoMH9eAZJkymBasN3R1/y7GWyJQwNQaOIGDYoIxAicZ8VgDhL/KujbOjgS2wOkh1tjgUJNE1cRq1rGV7epyXX46V2paXayxFxNRG1t7ilJqYU2XmljPdPcd3d46kriR52wQMmWdrnATSfupU23Ws7rsu9iU9mX9YiMs//jW7h71sJtKlbnEY4qwujjrWhte/Wvg0mAjHKZCz74/D+XJ3ijw+hqavYuR5fkO0h5sRPaOL1E2ZTwwfyTw7ggULB6J8LdH48FXb6Pg9EGAjg8VBSxUBagsyuNqLjRcaooLkBz9AOXyNzaflgYfFbAnDYZKg0LWaDNFVuhjZBkI/M9EIFUUxNQaNNGEKdGIZNXl/joIH2tEskyZGmk+ptAOjzTD3h5UEV3aeiplDZvZNR3ZmzE9/tDBHCvszbGXJmFfhxrYZF8DG6jI1V3MSZbMPVJFNCo/MX1uYg+3tScb6171WJfq4cgA9kn9ZZ7QDCdfaoHb3/8F13/8GifemoT9ozrR2TENsjH26lMTF11r4Ggfa0RsX4mihDvIOPF3upnfoezIW0hfPxXZf6Sa3hqNijeHInvhUCT+YT4Sj21CaWI4TYX8owzsCcuLSFAOKguyUZGfBU1+NrdzkRwZRrKenLnQ4zlkpeDGBxNxb1QdRI6txzRYDwFMXYIgIewXgZkOsk6yqKigCfUVQplyAzlA/F+rT0LN2etZUeXGHPHG2NOjAXZ2b4AtJG4Ta88GR6a7TsbYz35sZ0eqh/2UfL2xk4ZkB+33TrrLXVTMAfZHh9ikHupnhaMD6+HEgNo45WJEZ2iNH53s4PfjR7RobLST7wBpYcgP9UH44a24+flb8JozGNsGtsPqEb2QdtUDZcGeKDzxN2jc3kTpyinARzQS7w9EyR8HI0H+3OKPn6E8iD1ghRh0+glNBYq5nl9EkhhfTV6GdpmbQcIykfwghPH/GWRBR9a1DybDe2QNxL9WgyO9Du6zdvmJChjEIAbzlwOJEox7hEDdvmAikIoOGlefirPAlRE2ONyzNg70ZJ1xpiVn37OTFtyNRuOATMo6mrKGsa70YlpjOjvkTAXRER51bYCjtOCyPOJSH24DatHt1cSZ3nVZh5hmnZvi+ooPgOwEpPtfRsL5jci9/hMQ7UXyfFH04A5Srp6A/4mdKEm4B82dbSjZ9yYKqaiS76eh7ItJyP3HNGSv+SuK7ngwxaUokmRGRVOuIUpRXpjJ+pOo4qyHRv7uC31DUmjAc8hS9Upfs2gwWLf0ZMmft7j0wRTcobKix9ZAKMnyoWPTKqtKgH8LcHCIygKpQj822FdHmbAHqkmHVxd72CftcaYlZyN6kO5vI1Pkj6xL+2nrj5HEwzQNh0jWEZJ0mE2wQMg61N8E7n1N4NW7PjxZt44OaIzdw9rizrJ/ItvPF5oUH2R7b0fS4Q9RuPevKPVcjeLgE0DWLWii3JHp/jfkbZ+Fik3TULBmNlI2fYisS56qvki6EyWJ4ysv1aBMfiychqIiJxHlKZGoSItXKNdB1pOC7qtpJk22npPH8aQbVKDCclNRlpuG658uxNURRoiaUJc1y0hHFusIR7p+5P+WEIUFMFUGTLLAtVFmONyrFl2cEWGMQ05GKkVu7laPyqLqnIzp7uTrDjaxfQSsT65sdF2FOIEF3AlPV2N4cb+nqynPp9Gg8ThK0s6v/Csi7p9GceJN4PZ25B37AqnuXyD39GfIOvYHZO9biLK9c1G5czbKTnyEivgbkB88kJ8qlp8UKasoR2VJESrlly9KSuiwM9Vf+tMkhkKTxGVSNNej2FhzmRyDJJ/biiz5Wr+6ExQYnBtUf+WHb0JhNvxW/RnnhtOus14Fj68PH6ahAAYteGx9BOhH+2+IIJIVTOMRNNaYpFkphR1yqsGUWJNL+SqE/VZP6aHqYD8Vc5QEHRaIknTqOtrXGEeI433McdzFFMcHGOHEQFry/vXo+kxxio7wuAv7LV539zBb7P/9ZEQH+pCBKJSfXY68na+jmCRpDs5H5f6FqDz6LnBjGUrD9yM/8RKKs4OhKaTrK04CShnHimx6APayKTFAQigQF4TK+HAtYsOgiX/A5joMaT63VBpU32dV6a/0eKJmCdQfO2M6BB1Lwt7luDjaGoGv1UMgCfJhIyuKCqHKAqWuGAjorwlJh6GvcrC8Jp9tDv9JJGxMfRyjS3NzqkkDwZ6K/dJGx9pshmm9+9QhWZIGWbsUWUIUUyhxqncDeLhScUNY/4bVhDsNx2kSdXgQ1TWI/Rbd4onODeC1dALiw26g3P8sitb9AWVrZwLbaSj2zKSyXkeJ54fQXP4EJRf+gLzz7yL/zAeoPL8SZbf3oCTqHNPefRIVSuWFkpwAIMqfaTRIi+hgVBLlD/yQ6X9bx4VhVCFL/L0WFdKYsZNGYR4yrh7D+Wkd6cjqwY/14s5EO6ajeqp+GQrmbwEhShDAJj1ABswkU7YX9eDeqyYNRT3s6V4P24QskuPmKl/ns9ml4ztCHGP6c6fJcCdpHjx+gk3v8YG12fDW4pLbAyxwZHhNHBxQFzucOuLeV18BiX7Aya+Q9sVEpK5/k0r6CIXblqJk80JU/DQHpft/j9Kr3yLH6z2UnJgLHJpMMmcgf+MCJO59G+mH/4KMk1+j4PpeVD5gvYsORFlkADREZQTJiwxCceh9ZAXf0041PQVV5garQA5yWZmfh9K4CNz4yzjcHVNbpZ677LcCSFbw2LoMFlPRWNaP3xpSt6RmypK2XhDMOnpzpCk8ejMVdq2N3V3r4gBVsr8fbTnVdZyEHSOOs6867qrFMZJ2om99nOlbB+f6StNbDx5U1eG+NbBzqCVCdiwnUdFI2b0WsX8bj9z976M02h3lNzcic/O7KFyzEFg2EeXb36E6vJAfcBA5pz9C6cG5KN45DyVbF6Bi6zRoNk9B+aZZyN/6R5Rc3IfK8Psoi/CBJpy2PtQXlWH+KAz2Rn5EIM3dM/5OsaHc+BDZmepvvsdu+wY3x5gicnQNhHBE+463hB+b1UAGztDI/y3h/5oQSMJ4L/4TzHBjtDGOOdXCrs5Sv8zUzMRRpkF3F5JFuNNIuPfV4hjVdYLbZ0jU+X41cLZfLZx05nJMByrhB5Q88ETgt39B7BcfoOD2YWaaEPlnb1B05DOUrJ4KzTdjoflsAtKWU2XhV1mfElGZfgdlPtuRevQbZOxkOtzAlLmR2EDy1i1F2bH1QMBVVATfRmUQe7kAb5QT+f73UJ4QRbIM1yuBzg0+DbSMuYUo8bmGu0v6ImhkLURQYb7j7XB/nIWqYU+M+t8Y0jBrl0YcQLUQONkCF4aa4kD3OjgoPRbJOkb1HGNtOkY1KaL6MRVSce79jOGplFWbqImTrkyFVF7Etn+iJPAaQle+j7j936Ey5i7NAgduRQFr0G1k7/kQlStYsz4Zg8qPpiDxb/OQfd6d9q8E5SUyMxEDDRvqwjuHUXjg9yjYvgh5G+cjb9sfUHlxGxB4EZqga4DfdWh8b6HY5x7yAlnH0ukbctIM8KBFlT7LAMhmKWtXRWoib3odzr/aBA9eYa3iaPYba8b0Y6RLQwwc4a8Pom5bC22a0h+vjsfPfRyGzhc8dp5sK/BextVWTvX2GEucG0Kn178B3FxqK6KOs165qxRI58e6dZw4ScIk9Xn1qwsP9lyHBlhju2tD+J7YhELWk5IrZ9kgh6FYQ8NVWKx+mCX99lGkHf4WlVuY0v78GvDHych5exyyt33Pc/NRWsx+qiiLfSoNWgqb3JBDKLq6Fnmnl6Hk8kZo/L1QFnQFJf7nUOZ7EaV+N1EY6IvCGDpN+VPtqgQZ4IKoYjCqI0NJrzI7Cvm5mciOTkDgV6/jzvAaJKyGcof+emVVCe5jgVTQkcVzqwddQd73NBg6X2DoXPU5rKHjLHGT/de1l6xx5RX5Zwxq0GDQQEj605F1nDZecFopqhY8SZr8oyOb+7bAxT8tRkGUDxvYNBTn03DlZ3NU56K4qIwOORRpp9eg8BYJOLgG6e+yHi1+DeULhyD388WojGLAC9lb5acDScEoCrmNwjD2aGGXqaKTTHkXUBF4H3n3byDfzxMlwZdQHu6NoqgQFJGMAsZZbLthPh5zg4ZAsnKiUJifhpycYsr1GnzeGULCjBD6ijnToDnusch7T2AKGs+m+VWO7LG16Rjr0ogYEQ0ImhIWfx/2aIGv1X4CSg1PgaHzBQbP5ecGkbAgEuY9xgh36A79xjfAzdG1cc7FBF5sms841ccpmoyT/evAfTCJot33JIHbZQZkfB9E7d1ANSRQQekoL0hCbgGb08wMIDUTZXk5KI66gbQLG5hpbqLUYytyl0xF5eJRqFjoivz3xqL83mVU5lGBqXTTD+6g2P8iygJIlj/r2V2q9M4FVN66yvR4BRnB11ESH0hFBaGIjXEZG+GSHG29MszF88gi28iOR1kObzw3G8Xpaci/6YWbr4/EzYEkh0GRvsd3XD0FfxIW9Br3v2KEkFfYSL9ihpCXrRAyxhaBHOX+cg77s18LYuX9SJbvK+wHX5a+UKy9Ka6NachUx2aXTfNZqslzQA0cHUjFUWXbnMxx+vfTkMuBiJI8Nq985hy2Lew1kalDFgnMS0VZ4B36i9PQIBwV57ajYMFrqFw6AmVv9UfKm6OQf3qfMmSISeC5V1Ee6An4nEal9xlU3CVuC2HnUSapLzkOeXSaOXEPUJaWgAr5PJm9EOdniAvi2TWLQEYsSrPikZuXxbYrB5rkCBTcOoHg94fh2rBaJMIcUaPNEfSKCW5NMqHKGpAkWulX2Q+9YkqYI/hlmhGS5fea2a8K/7EW8H3VHD78XB/eT9B4+cbZAtenGOPyhPrwGlwDpwZI31ULe3rVwJ6xXRG08QsgOVh9IahJpzHIiNSSkyXBq4LsJFQmxzCoEags4/KmO5LemY6MN4Yh63dDEP2Hsci/dJDKjAGC/VDuew6VAScA7xMkyhNFd86g8P41aMIC2Q7EIp9qymD6K5PJCJoHNYku84IGONDjOW4whWSRdd5sfn4GsnMzUMhRJ19OloZcQsSPf8W1KX1wb6AtQmiZ/SbWwJ2pNXFrSi3cnFxDu5xSEzcInwm1EfZyHaru1wRVzc8IUZ9TFw9YJ8NfNeJgqoEoKs1nlAnNhhHW0yWeenMYMm540AjIxGkyyqigsqxorj/g6I4iafFE3ONIT0ApFVCSF8+aFIT8fWsR8+FMhP9xHDK2fI7KSLq7yPuo9CUpPlSSD4m6445S71OsUVdQGB6Iovg45Cdw8CdG8PPkM0kSP1/91oiC4XlBwbP7LAEZLSPjxXQ3RXmJKOKbStl/FRXQ0ienIPPUUfi9Pws3pjvgHINz7aVa8B1eB0EvN8CDcWZUGFMiU2PQWDEkNAKscb8eJM1qETCeqZEIpEtMGGGMxJds4P1SM5ye5oRbq/4ITcIt9kU0UWxPSuVvMucyULmxtM5hJIwKU1Nv8mfrq0B+UUC+1uBgVW6PhGnue6H8NtNdLBvctACUht1Apf814or2DwR4n0Yx24CiSD/kxoQjIy4GBRl6JSXp5mHlmtp5WYMc6GB4BqMKirOzUSRfkGVHM38/YNMXi8pUFuCMLD5cNosx7WZ8MDKuHof3hq/h/cEc3J7ZB+6jWsNN/jnRUQJbHHrJFvtH2+JANexnPXsaqp+rh+FzbXBgjBVhqbB/jAX2jbbgZ5rDjal6x3AznFzYF0mHViLvwS2kRvshJcwbKaG+iA8PQHyEP1If3EVG2FWkh95FWpg/4fcY0kPvITv4HjJCAhHzIAixsUHIjPTnPn8ksqkN9T6LiOvuSD53FCmXPJFw6xwyfW4gN/Q+8mPp+NJiqcpUFAtJVKmagyXUwNANBEMc6PEcgyG/9pNFJaUz9VH6rF9gMUQqXWIKu3WOihL54AKSVkQXlFeKMu7Pi7qPpJAbiA+4hETa1cTA80hiX5HsYwAcfU+FofMFTz33LNfPaMHCrsCRnxDsidggT+REy6x2JIqS2I4kSd2IRAGRnxStUJAUicLEMLWvIJEKoAF4BNmOYBqLQGFCHDKT4pCRlkijEK9SW15SAstaJHLiQ1EQE4qi2AgUJ8SgnD2qzLcij4OaJUT+9rOkO+38qxbaOVlZsjYZ4kGH51h3QhU3WkphV9+06aD2VUFlTiatK91QQQE7/iKCBAqJVZf/EZRowfuqzMkm2LRmE7LkPSswtVdynxzTgttP4NF+OV+9R7dfex1phjlwCf25Gp6j4lYtVlXj+KJ4fs36H/5r8Fw3+D/89+C5fdb/8N+D59es/+G/Bv8j6/8j/I+s/2+Qjv8HZzBQeCahUp0AAAAASUVORK5CYII=;" vertex="1" parent="1">
          <mxGeometry x="140" y="300" width="60.56" height="60" as="geometry" />
        </mxCell>
      </root>
    </mxGraphModel>
  </diagram>
</mxfile>
